<?xml version="1.0" encoding="UTF-8"?>
<svg xmlns="http://www.w3.org/2000/svg" xmlns:xlink="http://www.w3.org/1999/xlink" width="px" height="25px" viewBox="0 0 33 25" version="1.1">
<g id="surface1">
<path style=" stroke:none;fill-rule:nonzero;fill:rgb(100%,100%,100%);fill-opacity:1;" d="M 7.738281 0 L 25.253906 0 L 25.253906 25 L 7.734375 25 Z M 7.738281 0 "/>
<path style=" stroke:none;fill-rule:nonzero;fill:rgb(83.529412%,16.862745%,11.764706%);fill-opacity:1;" d="M -1.015625 0 L 7.738281 0 L 7.738281 25 L -1.015625 25 Z M 25.253906 0 L 34.011719 0 L 34.011719 25 L 25.261719 25 Z M 10.363281 12.082031 L 9.679688 12.3125 L 12.84375 15.125 C 13.085938 15.839844 12.761719 16.050781 12.554688 16.425781 L 15.988281 15.988281 L 15.90625 19.480469 L 16.625 19.464844 L 16.464844 15.996094 L 19.902344 16.410156 C 19.691406 15.957031 19.5 15.71875 19.695312 14.996094 L 22.859375 12.339844 L 22.304688 12.128906 C 21.851562 11.777344 22.5 10.433594 22.59375 9.582031 C 22.59375 9.582031 20.753906 10.222656 20.636719 9.886719 L 20.160156 8.972656 L 18.480469 10.839844 C 18.300781 10.886719 18.222656 10.8125 18.175781 10.65625 L 18.949219 6.761719 L 17.722656 7.457031 C 17.617188 7.503906 17.515625 7.464844 17.453125 7.34375 L 16.269531 4.949219 L 15.050781 7.4375 C 14.957031 7.527344 14.867188 7.535156 14.792969 7.472656 L 13.613281 6.8125 L 14.320312 10.671875 C 14.261719 10.828125 14.128906 10.871094 13.972656 10.785156 L 12.363281 8.949219 C 12.160156 9.285156 12.015625 9.839844 11.734375 9.964844 C 11.457031 10.082031 10.523438 9.730469 9.898438 9.597656 C 10.117188 10.371094 10.777344 11.660156 10.363281 12.082031 Z M 10.363281 12.082031 "/>
</g>
</svg>
