<?xml version="1.0" encoding="UTF-8"?>
<svg xmlns="http://www.w3.org/2000/svg" xmlns:xlink="http://www.w3.org/1999/xlink" width="px" height="25px" viewBox="0 0 33 25" version="1.1">
<g id="surface1">
<rect x="0" y="0" width="33" height="25" style="fill:rgb(0%,67.058824%,76.078431%);fill-opacity:1;stroke:none;"/>
<path style=" stroke:none;fill-rule:nonzero;fill:rgb(100%,92.54902%,17.647059%);fill-opacity:1;" d="M 21.160156 10.5 C 21.160156 12.359375 19.671875 13.863281 17.832031 13.863281 C 15.992188 13.863281 14.5 12.359375 14.5 10.5 C 14.5 8.640625 15.992188 7.136719 17.832031 7.136719 C 19.671875 7.136719 21.160156 8.640625 21.160156 10.5 Z M 21.160156 10.5 "/>
<path style=" stroke:none;fill-rule:nonzero;fill:rgb(100%,92.54902%,17.647059%);fill-opacity:1;" d="M 17.832031 6.675781 C 18.027344 6.675781 18.101562 6.550781 18.101562 6.398438 C 18.101562 6.199219 17.832031 5.246094 17.832031 5.246094 C 17.832031 5.246094 17.558594 6.199219 17.558594 6.398438 C 17.558594 6.550781 17.632812 6.675781 17.832031 6.675781 Z M 17.832031 6.675781 "/>
<path style=" stroke:none;fill-rule:nonzero;fill:rgb(100%,92.54902%,17.647059%);fill-opacity:1;" d="M 21.613281 10.5 C 21.617188 10.699219 21.742188 10.773438 21.890625 10.773438 C 22.085938 10.773438 23.03125 10.5 23.03125 10.5 C 23.03125 10.5 22.085938 10.226562 21.890625 10.226562 C 21.742188 10.226562 21.613281 10.300781 21.613281 10.5 Z M 21.613281 10.5 "/>
<path style=" stroke:none;fill-rule:nonzero;fill:rgb(100%,92.54902%,17.647059%);fill-opacity:1;" d="M 17.832031 14.324219 C 17.632812 14.324219 17.558594 14.449219 17.558594 14.601562 C 17.558594 14.800781 17.832031 15.753906 17.832031 15.753906 C 17.832031 15.753906 18.101562 14.800781 18.101562 14.601562 C 18.101562 14.449219 18.027344 14.324219 17.832031 14.324219 Z M 17.832031 14.324219 "/>
<path style=" stroke:none;fill-rule:nonzero;fill:rgb(100%,92.54902%,17.647059%);fill-opacity:1;" d="M 14.046875 10.5 C 14.042969 10.300781 13.917969 10.226562 13.769531 10.226562 C 13.574219 10.226562 12.628906 10.5 12.628906 10.5 C 12.628906 10.5 13.574219 10.773438 13.769531 10.773438 C 13.917969 10.773438 14.046875 10.699219 14.046875 10.5 Z M 14.046875 10.5 "/>
<path style=" stroke:none;fill-rule:nonzero;fill:rgb(100%,92.54902%,17.647059%);fill-opacity:1;" d="M 19.277344 6.96875 C 19.460938 7.042969 19.578125 6.957031 19.636719 6.816406 C 19.710938 6.632812 19.820312 5.648438 19.820312 5.648438 C 19.820312 5.648438 19.207031 6.421875 19.132812 6.605469 C 19.074219 6.746094 19.09375 6.890625 19.277344 6.96875 Z M 19.277344 6.96875 "/>
<path style=" stroke:none;fill-rule:nonzero;fill:rgb(100%,92.54902%,17.647059%);fill-opacity:1;" d="M 21.328125 11.960938 C 21.253906 12.148438 21.339844 12.265625 21.476562 12.324219 C 21.660156 12.398438 22.632812 12.511719 22.632812 12.511719 C 22.632812 12.511719 21.867188 11.890625 21.683594 11.816406 C 21.546875 11.757812 21.402344 11.777344 21.328125 11.960938 Z M 21.328125 11.960938 "/>
<path style=" stroke:none;fill-rule:nonzero;fill:rgb(100%,92.54902%,17.647059%);fill-opacity:1;" d="M 16.382812 14.03125 C 16.199219 13.957031 16.082031 14.042969 16.027344 14.183594 C 15.949219 14.367188 15.839844 15.351562 15.839844 15.351562 C 15.839844 15.351562 16.453125 14.578125 16.527344 14.394531 C 16.585938 14.253906 16.566406 14.109375 16.382812 14.03125 Z M 16.382812 14.03125 "/>
<path style=" stroke:none;fill-rule:nonzero;fill:rgb(100%,92.54902%,17.647059%);fill-opacity:1;" d="M 14.335938 9.039062 C 14.40625 8.851562 14.320312 8.734375 14.183594 8.675781 C 14 8.601562 13.027344 8.488281 13.027344 8.488281 C 13.027344 8.488281 13.792969 9.109375 13.976562 9.183594 C 14.113281 9.242188 14.257812 9.222656 14.335938 9.039062 Z M 14.335938 9.039062 "/>
<path style=" stroke:none;fill-rule:nonzero;fill:rgb(100%,92.54902%,17.647059%);fill-opacity:1;" d="M 20.507812 7.796875 C 20.648438 7.9375 20.789062 7.902344 20.894531 7.796875 C 21.03125 7.652344 21.507812 6.785156 21.507812 6.785156 C 21.507812 6.785156 20.648438 7.265625 20.507812 7.40625 C 20.402344 7.511719 20.367188 7.65625 20.507812 7.796875 Z M 20.507812 7.796875 "/>
<path style=" stroke:none;fill-rule:nonzero;fill:rgb(100%,92.54902%,17.647059%);fill-opacity:1;" d="M 20.507812 13.203125 C 20.367188 13.347656 20.402344 13.488281 20.507812 13.59375 C 20.648438 13.734375 21.507812 14.214844 21.507812 14.214844 C 21.507812 14.214844 21.03125 13.347656 20.894531 13.203125 C 20.789062 13.097656 20.644531 13.0625 20.507812 13.203125 Z M 20.507812 13.203125 "/>
<path style=" stroke:none;fill-rule:nonzero;fill:rgb(100%,92.54902%,17.647059%);fill-opacity:1;" d="M 15.15625 13.203125 C 15.011719 13.0625 14.871094 13.097656 14.769531 13.203125 C 14.628906 13.347656 14.152344 14.214844 14.152344 14.214844 C 14.152344 14.214844 15.011719 13.734375 15.152344 13.59375 C 15.257812 13.488281 15.292969 13.34375 15.15625 13.203125 Z M 15.15625 13.203125 "/>
<path style=" stroke:none;fill-rule:nonzero;fill:rgb(100%,92.54902%,17.647059%);fill-opacity:1;" d="M 15.15625 7.796875 C 15.292969 7.652344 15.257812 7.511719 15.152344 7.40625 C 15.011719 7.265625 14.152344 6.785156 14.152344 6.785156 C 14.152344 6.785156 14.628906 7.652344 14.769531 7.796875 C 14.871094 7.902344 15.015625 7.9375 15.15625 7.796875 Z M 15.15625 7.796875 "/>
<path style=" stroke:none;fill-rule:nonzero;fill:rgb(100%,92.54902%,17.647059%);fill-opacity:1;" d="M 21.328125 9.039062 C 21.40625 9.222656 21.546875 9.242188 21.683594 9.183594 C 21.867188 9.109375 22.632812 8.488281 22.632812 8.488281 C 22.632812 8.488281 21.660156 8.601562 21.476562 8.675781 C 21.339844 8.734375 21.25 8.851562 21.328125 9.039062 Z M 21.328125 9.039062 "/>
<path style=" stroke:none;fill-rule:nonzero;fill:rgb(100%,92.54902%,17.647059%);fill-opacity:1;" d="M 19.277344 14.03125 C 19.097656 14.109375 19.074219 14.253906 19.132812 14.394531 C 19.207031 14.578125 19.820312 15.351562 19.820312 15.351562 C 19.820312 15.351562 19.710938 14.367188 19.636719 14.183594 C 19.578125 14.042969 19.460938 13.953125 19.277344 14.03125 Z M 19.277344 14.03125 "/>
<path style=" stroke:none;fill-rule:nonzero;fill:rgb(100%,92.54902%,17.647059%);fill-opacity:1;" d="M 14.335938 11.960938 C 14.257812 11.777344 14.113281 11.757812 13.976562 11.816406 C 13.792969 11.890625 13.027344 12.511719 13.027344 12.511719 C 13.027344 12.511719 14 12.398438 14.183594 12.324219 C 14.320312 12.265625 14.410156 12.148438 14.335938 11.960938 Z M 14.335938 11.960938 "/>
<path style=" stroke:none;fill-rule:nonzero;fill:rgb(100%,92.54902%,17.647059%);fill-opacity:1;" d="M 16.382812 6.96875 C 16.5625 6.890625 16.585938 6.746094 16.527344 6.605469 C 16.453125 6.421875 15.839844 5.648438 15.839844 5.648438 C 15.839844 5.648438 15.949219 6.632812 16.027344 6.816406 C 16.082031 6.957031 16.199219 7.046875 16.382812 6.96875 Z M 16.382812 6.96875 "/>
<path style=" stroke:none;fill-rule:nonzero;fill:rgb(100%,92.54902%,17.647059%);fill-opacity:1;" d="M 18.570312 6.75 C 18.765625 6.789062 18.863281 6.679688 18.894531 6.535156 C 18.929688 6.335938 18.847656 5.347656 18.847656 5.347656 C 18.847656 5.347656 18.398438 6.230469 18.359375 6.425781 C 18.328125 6.574219 18.378906 6.710938 18.570312 6.75 Z M 18.570312 6.75 "/>
<path style=" stroke:none;fill-rule:nonzero;fill:rgb(100%,92.54902%,17.647059%);fill-opacity:1;" d="M 21.542969 11.25 C 21.503906 11.445312 21.613281 11.542969 21.757812 11.574219 C 21.953125 11.613281 22.929688 11.527344 22.929688 11.527344 C 22.929688 11.527344 22.058594 11.074219 21.863281 11.035156 C 21.71875 11.003906 21.578125 11.054688 21.542969 11.25 Z M 21.542969 11.25 "/>
<path style=" stroke:none;fill-rule:nonzero;fill:rgb(100%,92.54902%,17.647059%);fill-opacity:1;" d="M 17.089844 14.25 C 16.894531 14.210938 16.796875 14.320312 16.769531 14.464844 C 16.730469 14.664062 16.8125 15.652344 16.8125 15.652344 C 16.8125 15.652344 17.261719 14.769531 17.300781 14.574219 C 17.332031 14.425781 17.28125 14.289062 17.089844 14.25 Z M 17.089844 14.25 "/>
<path style=" stroke:none;fill-rule:nonzero;fill:rgb(100%,92.54902%,17.647059%);fill-opacity:1;" d="M 14.121094 9.75 C 14.15625 9.554688 14.050781 9.457031 13.902344 9.425781 C 13.710938 9.386719 12.730469 9.472656 12.730469 9.472656 C 12.730469 9.472656 13.601562 9.925781 13.796875 9.964844 C 13.941406 9.996094 14.082031 9.945312 14.121094 9.75 Z M 14.121094 9.75 "/>
<path style=" stroke:none;fill-rule:nonzero;fill:rgb(100%,92.54902%,17.647059%);fill-opacity:1;" d="M 19.933594 7.324219 C 20.101562 7.433594 20.230469 7.371094 20.316406 7.246094 C 20.425781 7.078125 20.722656 6.136719 20.722656 6.136719 C 20.722656 6.136719 19.972656 6.773438 19.863281 6.941406 C 19.78125 7.066406 19.769531 7.210938 19.933594 7.324219 Z M 19.933594 7.324219 "/>
<path style=" stroke:none;fill-rule:nonzero;fill:rgb(100%,92.54902%,17.647059%);fill-opacity:1;" d="M 20.976562 12.625 C 20.867188 12.792969 20.929688 12.925781 21.050781 13.007812 C 21.214844 13.121094 22.152344 13.421875 22.152344 13.421875 C 22.152344 13.421875 21.519531 12.664062 21.355469 12.550781 C 21.230469 12.46875 21.085938 12.460938 20.976562 12.625 Z M 20.976562 12.625 "/>
<path style=" stroke:none;fill-rule:nonzero;fill:rgb(100%,92.54902%,17.647059%);fill-opacity:1;" d="M 15.726562 13.675781 C 15.558594 13.566406 15.429688 13.628906 15.347656 13.753906 C 15.234375 13.921875 14.9375 14.863281 14.9375 14.863281 C 14.9375 14.863281 15.6875 14.226562 15.796875 14.058594 C 15.882812 13.933594 15.890625 13.789062 15.726562 13.675781 Z M 15.726562 13.675781 "/>
<path style=" stroke:none;fill-rule:nonzero;fill:rgb(100%,92.54902%,17.647059%);fill-opacity:1;" d="M 14.6875 8.375 C 14.792969 8.207031 14.730469 8.074219 14.609375 7.992188 C 14.445312 7.878906 13.507812 7.578125 13.507812 7.578125 C 13.507812 7.578125 14.140625 8.335938 14.304688 8.449219 C 14.429688 8.53125 14.574219 8.539062 14.6875 8.375 Z M 14.6875 8.375 "/>
<path style=" stroke:none;fill-rule:nonzero;fill:rgb(100%,92.54902%,17.647059%);fill-opacity:1;" d="M 20.980469 8.378906 C 21.089844 8.542969 21.234375 8.539062 21.359375 8.453125 C 21.523438 8.34375 22.15625 7.585938 22.15625 7.585938 C 22.15625 7.585938 21.222656 7.886719 21.054688 7.996094 C 20.933594 8.078125 20.867188 8.210938 20.980469 8.378906 Z M 20.980469 8.378906 "/>
<path style=" stroke:none;fill-rule:nonzero;fill:rgb(100%,92.54902%,17.647059%);fill-opacity:1;" d="M 19.929688 13.679688 C 19.765625 13.792969 19.773438 13.9375 19.855469 14.0625 C 19.964844 14.230469 20.714844 14.871094 20.714844 14.871094 C 20.714844 14.871094 20.417969 13.925781 20.308594 13.757812 C 20.226562 13.632812 20.09375 13.570312 19.929688 13.679688 Z M 19.929688 13.679688 "/>
<path style=" stroke:none;fill-rule:nonzero;fill:rgb(100%,92.54902%,17.647059%);fill-opacity:1;" d="M 14.683594 12.621094 C 14.570312 12.457031 14.425781 12.460938 14.300781 12.546875 C 14.136719 12.65625 13.503906 13.414062 13.503906 13.414062 C 13.503906 13.414062 14.441406 13.113281 14.605469 13.003906 C 14.726562 12.921875 14.792969 12.789062 14.683594 12.621094 Z M 14.683594 12.621094 "/>
<path style=" stroke:none;fill-rule:nonzero;fill:rgb(100%,92.54902%,17.647059%);fill-opacity:1;" d="M 15.730469 7.320312 C 15.894531 7.207031 15.886719 7.0625 15.804688 6.9375 C 15.695312 6.769531 14.945312 6.128906 14.945312 6.128906 C 14.945312 6.128906 15.242188 7.074219 15.351562 7.242188 C 15.433594 7.367188 15.566406 7.429688 15.730469 7.320312 Z M 15.730469 7.320312 "/>
<path style=" stroke:none;fill-rule:nonzero;fill:rgb(100%,92.54902%,17.647059%);fill-opacity:1;" d="M 21.542969 9.757812 C 21.582031 9.953125 21.71875 10.003906 21.863281 9.972656 C 22.058594 9.933594 22.929688 9.480469 22.929688 9.480469 C 22.929688 9.480469 21.953125 9.394531 21.757812 9.433594 C 21.613281 9.464844 21.503906 9.5625 21.542969 9.757812 Z M 21.542969 9.757812 "/>
<path style=" stroke:none;fill-rule:nonzero;fill:rgb(100%,92.54902%,17.647059%);fill-opacity:1;" d="M 18.566406 14.25 C 18.371094 14.289062 18.324219 14.429688 18.351562 14.574219 C 18.390625 14.773438 18.839844 15.652344 18.839844 15.652344 C 18.839844 15.652344 18.925781 14.664062 18.886719 14.46875 C 18.855469 14.320312 18.757812 14.210938 18.566406 14.25 Z M 18.566406 14.25 "/>
<path style=" stroke:none;fill-rule:nonzero;fill:rgb(100%,92.54902%,17.647059%);fill-opacity:1;" d="M 14.117188 11.242188 C 14.078125 11.046875 13.941406 10.996094 13.796875 11.027344 C 13.601562 11.066406 12.730469 11.519531 12.730469 11.519531 C 12.730469 11.519531 13.707031 11.605469 13.902344 11.566406 C 14.046875 11.535156 14.15625 11.4375 14.117188 11.242188 Z M 14.117188 11.242188 "/>
<path style=" stroke:none;fill-rule:nonzero;fill:rgb(100%,92.54902%,17.647059%);fill-opacity:1;" d="M 17.09375 6.75 C 17.289062 6.710938 17.335938 6.570312 17.308594 6.425781 C 17.269531 6.226562 16.820312 5.347656 16.820312 5.347656 C 16.820312 5.347656 16.738281 6.335938 16.773438 6.53125 C 16.804688 6.679688 16.902344 6.789062 17.09375 6.75 Z M 17.09375 6.75 "/>
<path style=" stroke:none;fill-rule:nonzero;fill:rgb(100%,92.54902%,17.647059%);fill-opacity:1;" d="M 17.714844 16.375 C 17.628906 16.53125 17.578125 16.714844 17.46875 16.859375 C 17.132812 16.550781 16.648438 16.558594 16.222656 16.539062 C 15.871094 16.519531 15.488281 16.488281 15.214844 16.234375 C 14.933594 15.996094 14.695312 15.691406 14.378906 15.5 C 14.082031 15.433594 13.800781 15.304688 13.558594 15.117188 C 13.0625 14.703125 12.773438 14.09375 12.285156 13.667969 C 12.191406 13.578125 12.082031 13.503906 11.976562 13.425781 C 11.878906 13.453125 11.921875 13.667969 11.800781 13.558594 C 11.734375 13.507812 11.566406 13.503906 11.554688 13.574219 C 11.703125 13.773438 11.851562 13.996094 11.875 14.253906 C 11.769531 14.261719 11.589844 14.230469 11.539062 14.265625 C 11.675781 14.472656 11.847656 14.652344 12.046875 14.800781 C 11.953125 14.816406 11.765625 14.808594 11.730469 14.84375 C 11.914062 15.023438 12.144531 15.152344 12.390625 15.210938 C 12.441406 15.28125 12.316406 15.417969 12.425781 15.476562 C 12.488281 15.503906 12.695312 15.546875 12.550781 15.621094 C 12.453125 15.683594 12.488281 15.84375 12.613281 15.835938 C 12.695312 15.878906 12.871094 15.886719 12.886719 15.960938 C 12.816406 16.03125 12.597656 16.117188 12.785156 16.1875 C 12.957031 16.289062 13.152344 16.34375 13.355469 16.355469 C 13.257812 16.441406 13.132812 16.488281 13.03125 16.566406 C 13.488281 16.839844 13.996094 17.015625 14.5 17.191406 C 14.699219 17.257812 14.90625 17.320312 15.113281 17.359375 C 14.507812 17.324219 13.925781 17.144531 13.375 16.898438 C 13.089844 16.773438 12.804688 16.648438 12.511719 16.542969 C 12.640625 16.476562 12.789062 16.457031 12.921875 16.398438 C 12.644531 16.34375 12.34375 16.324219 12.105469 16.175781 C 12.140625 16.105469 12.277344 16.101562 12.359375 16.066406 C 12.507812 16.03125 12.59375 15.992188 12.390625 15.976562 C 12.183594 15.921875 11.945312 15.945312 11.757812 15.820312 C 11.769531 15.746094 11.964844 15.769531 12.039062 15.738281 C 12.140625 15.71875 12.25 15.703125 12.328125 15.636719 C 12.007812 15.503906 11.585938 15.601562 11.332031 15.3125 C 11.277344 15.203125 11.515625 15.289062 11.582031 15.273438 C 11.753906 15.273438 11.9375 15.328125 12.105469 15.257812 C 11.636719 15.050781 11.132812 14.859375 10.777344 14.472656 C 10.738281 14.410156 10.617188 14.238281 10.714844 14.21875 C 10.992188 14.257812 11.191406 14.5625 11.492188 14.515625 C 11.53125 14.460938 11.316406 14.375 11.265625 14.296875 C 10.816406 13.933594 10.425781 13.503906 10.105469 13.023438 C 10.085938 12.855469 10.339844 12.828125 10.40625 12.957031 C 10.738281 13.28125 11.039062 13.65625 11.453125 13.878906 C 11.601562 13.949219 11.367188 13.792969 11.339844 13.734375 C 10.945312 13.292969 10.605469 12.808594 10.324219 12.289062 C 10.277344 12.191406 10.199219 12.019531 10.34375 11.96875 C 10.484375 11.898438 10.628906 11.996094 10.699219 12.121094 C 10.980469 12.476562 11.1875 12.902344 11.535156 13.199219 C 11.238281 12.617188 10.917969 12 10.914062 11.328125 C 10.917969 11.199219 10.925781 11.003906 11.101562 11.007812 C 11.25 10.984375 11.226562 11.175781 11.277344 11.265625 C 11.417969 11.761719 11.480469 12.296875 11.769531 12.730469 C 11.710938 12.363281 11.613281 11.988281 11.675781 11.613281 C 11.691406 11.488281 11.824219 11.453125 11.917969 11.53125 C 11.988281 11.703125 12.003906 11.925781 12.066406 12.117188 C 12.453125 13.410156 13.265625 14.535156 14.371094 15.296875 C 15.273438 15.921875 16.328125 16.289062 17.421875 16.355469 C 17.519531 16.363281 17.621094 16.367188 17.714844 16.371094 M 21.09375 18.648438 C 20.914062 18.761719 20.773438 18.566406 20.625 18.507812 C 20.519531 18.566406 20.507812 18.761719 20.410156 18.859375 C 20.289062 18.996094 20.140625 18.816406 20.152344 18.683594 C 20.011719 18.804688 19.9375 19.082031 19.707031 19.042969 C 19.597656 18.953125 19.515625 18.761719 19.429688 18.980469 C 19.363281 19.085938 19.183594 19.234375 19.085938 19.074219 C 19.058594 18.933594 18.988281 18.769531 18.914062 18.992188 C 18.859375 19.152344 18.691406 19.265625 18.53125 19.199219 C 18.445312 19.125 18.601562 18.855469 18.492188 18.871094 C 18.324219 18.988281 18.222656 19.265625 17.988281 19.242188 C 17.898438 19.140625 18.046875 18.964844 17.945312 18.851562 C 17.828125 19.003906 17.695312 19.226562 17.492188 19.242188 C 17.390625 19.164062 17.496094 18.929688 17.429688 18.898438 C 17.222656 19.023438 17 19.25 16.738281 19.179688 C 16.839844 18.78125 17.269531 18.640625 17.628906 18.613281 C 18.25 18.535156 18.902344 18.675781 19.503906 18.449219 C 19.597656 18.390625 19.832031 18.308594 19.75 18.171875 C 19.675781 18.058594 19.941406 18.101562 19.964844 17.976562 C 19.949219 17.816406 20.089844 17.835938 20.222656 17.824219 C 20.828125 17.796875 21.421875 17.925781 22.023438 17.949219 C 22.070312 18.242188 21.746094 18.449219 21.480469 18.359375 C 21.355469 18.378906 21.171875 18.070312 21.207031 18.296875 C 21.183594 18.414062 21.199219 18.570312 21.09375 18.648438 M 15.957031 18.046875 C 16.097656 18.171875 16.195312 18.019531 16.328125 17.960938 C 16.757812 17.792969 17.160156 17.5625 17.523438 17.28125 C 17.75 17.089844 17.949219 16.84375 18.253906 16.78125 C 18.855469 16.597656 19.492188 16.621094 20.089844 16.449219 C 20.546875 15.820312 21.320312 15.59375 21.972656 15.230469 C 22.117188 15.183594 22.175781 15.0625 22.21875 14.929688 C 22.46875 14.53125 22.808594 14.183594 23.207031 13.941406 C 23.398438 13.828125 23.621094 13.789062 23.835938 13.828125 C 23.808594 14.082031 23.6875 14.316406 23.496094 14.488281 C 23.644531 14.488281 23.769531 14.394531 23.914062 14.398438 C 23.964844 14.664062 23.679688 14.800781 23.53125 14.96875 C 23.613281 14.988281 23.9375 15.011719 23.761719 15.097656 C 23.539062 15.253906 23.28125 15.359375 23.078125 15.542969 C 23.265625 15.578125 23.289062 15.617188 23.097656 15.6875 C 22.992188 15.757812 22.789062 15.78125 22.769531 15.921875 C 22.914062 16.011719 22.707031 16.097656 22.625 16.128906 C 22.46875 16.164062 22.308594 16.234375 22.511719 16.351562 C 22.4375 16.46875 22.265625 16.496094 22.132812 16.484375 C 22.171875 16.617188 22.234375 16.765625 22.0625 16.828125 C 21.679688 17.132812 21.21875 17.328125 20.734375 17.386719 C 21.34375 17.433594 21.96875 17.320312 22.484375 16.988281 C 22.554688 16.90625 22.914062 16.816406 22.714844 16.746094 C 22.617188 16.707031 22.417969 16.664062 22.402344 16.589844 C 22.683594 16.414062 23.039062 16.476562 23.339844 16.375 C 23.347656 16.273438 23.109375 16.300781 23.019531 16.28125 C 22.808594 16.261719 22.820312 16.207031 23.023438 16.1875 C 23.28125 16.117188 23.574219 16.105469 23.792969 15.9375 C 23.617188 15.851562 23.394531 15.925781 23.207031 15.859375 C 23.523438 15.71875 23.902344 15.703125 24.1875 15.488281 C 24.320312 15.34375 24.019531 15.390625 23.933594 15.390625 C 23.757812 15.425781 23.675781 15.335938 23.875 15.265625 C 24.21875 15.007812 24.652344 14.84375 24.894531 14.472656 C 24.953125 14.390625 25.03125 14.140625 24.847656 14.226562 C 24.609375 14.308594 24.398438 14.578125 24.125 14.496094 C 24.664062 14.074219 25.171875 13.597656 25.542969 13.015625 C 25.5625 12.84375 25.300781 12.828125 25.234375 12.960938 C 24.886719 13.296875 24.574219 13.691406 24.132812 13.90625 C 24.550781 13.484375 24.910156 13.007812 25.210938 12.496094 C 25.277344 12.34375 25.453125 12.164062 25.359375 11.996094 C 25.203125 11.863281 25.011719 11.984375 24.929688 12.136719 C 24.660156 12.492188 24.457031 12.90625 24.113281 13.195312 C 24.414062 12.613281 24.726562 11.988281 24.734375 11.320312 C 24.734375 11.179688 24.707031 10.976562 24.519531 11.003906 C 24.371094 11.027344 24.410156 11.253906 24.347656 11.363281 C 24.214844 11.824219 24.148438 12.324219 23.875 12.722656 C 23.9375 12.351562 24.042969 11.960938 23.964844 11.585938 C 23.921875 11.414062 23.652344 11.488281 23.691406 11.65625 C 23.367188 13.300781 22.273438 14.742188 20.84375 15.574219 C 20.1875 15.949219 19.457031 16.191406 18.710938 16.300781 C 18.511719 16.34375 18.296875 16.316406 18.105469 16.386719 C 17.640625 16.746094 17.359375 17.347656 16.773438 17.535156 C 16.507812 17.667969 16.167969 17.695312 15.980469 17.941406 C 15.964844 17.972656 15.957031 18.007812 15.957031 18.046875 M 17.238281 17.789062 C 17.148438 17.792969 17.0625 17.800781 16.976562 17.828125 C 16.859375 17.847656 16.75 17.886719 16.632812 17.90625 L 16.585938 17.914062 L 16.511719 17.921875 C 16.519531 17.964844 16.519531 18.007812 16.511719 18.050781 C 16.503906 18.070312 16.492188 18.085938 16.476562 18.101562 C 16.460938 18.121094 16.445312 18.136719 16.421875 18.144531 C 16.402344 18.15625 16.378906 18.160156 16.355469 18.164062 C 16.335938 18.164062 16.3125 18.164062 16.289062 18.152344 C 16.269531 18.144531 16.25 18.132812 16.230469 18.113281 L 16.160156 18.128906 L 16.09375 18.128906 L 16.027344 18.101562 C 16.003906 18.09375 15.980469 18.082031 15.960938 18.070312 C 15.878906 18.121094 15.78125 18.167969 15.730469 18.253906 C 15.707031 18.296875 15.691406 18.339844 15.691406 18.386719 C 15.6875 18.449219 15.703125 18.507812 15.726562 18.5625 C 15.734375 18.578125 15.742188 18.503906 15.769531 18.496094 C 15.816406 18.453125 15.878906 18.425781 15.9375 18.414062 C 15.984375 18.386719 15.980469 18.414062 15.957031 18.453125 C 15.953125 18.476562 15.925781 18.550781 15.964844 18.511719 C 16.136719 18.449219 16.316406 18.414062 16.5 18.410156 C 16.761719 18.382812 17.023438 18.375 17.285156 18.371094 L 18.027344 18.386719 C 18.148438 18.390625 18.265625 18.417969 18.382812 18.398438 C 18.410156 18.390625 18.453125 18.390625 18.472656 18.371094 C 18.417969 18.34375 18.355469 18.339844 18.296875 18.332031 L 17.824219 18.332031 C 17.695312 18.320312 17.558594 18.316406 17.433594 18.265625 C 17.398438 18.253906 17.371094 18.222656 17.335938 18.257812 C 17.289062 18.273438 17.242188 18.285156 17.191406 18.289062 C 17.105469 18.296875 17.019531 18.277344 16.9375 18.246094 C 16.996094 18.164062 17.066406 18.09375 17.128906 18.019531 L 16.976562 17.988281 C 17.066406 17.925781 17.148438 17.851562 17.238281 17.789062 Z M 17.238281 17.789062 "/>
<path style=" stroke:none;fill-rule:nonzero;fill:rgb(100%,92.54902%,17.647059%);fill-opacity:1;" d="M 16.394531 18.023438 C 16.394531 18.054688 16.367188 18.082031 16.335938 18.082031 C 16.300781 18.082031 16.277344 18.054688 16.277344 18.023438 C 16.277344 17.988281 16.300781 17.960938 16.335938 17.960938 C 16.367188 17.960938 16.394531 17.988281 16.394531 18.023438 Z M 16.394531 18.023438 "/>
<path style="fill-rule:nonzero;fill:rgb(100%,92.54902%,17.647059%);fill-opacity:1;stroke-width:0.4;stroke-linecap:butt;stroke-linejoin:miter;stroke:rgb(100%,92.54902%,17.647059%);stroke-opacity:1;stroke-miterlimit:4;" d="M 1020.82702 720.46875 C 1020.82702 721.09375 1020.353535 721.5625 1019.722222 721.5625 C 1019.248737 721.5625 1018.775253 721.09375 1018.775253 720.46875 C 1018.775253 720 1019.248737 719.53125 1019.722222 719.53125 C 1020.353535 719.53125 1020.82702 720 1020.82702 720.46875 Z M 1020.82702 720.46875 " transform="matrix(0.02475,0,0,0.025,-8.91,0)"/>
<path style=" stroke:none;fill-rule:nonzero;fill:rgb(100%,92.54902%,17.647059%);fill-opacity:1;" d="M 2.96875 1.824219 C 2.96875 1.824219 2.730469 1.621094 2.652344 1.722656 C 2.523438 1.886719 3.050781 2.699219 3.050781 2.984375 C 3.050781 3.453125 2.738281 3.578125 2.359375 3.644531 C 2.101562 3.691406 1.683594 3.628906 1.683594 3.628906 C 1.761719 3.519531 1.8125 3.488281 1.945312 3.480469 C 1.796875 3.40625 1.648438 3.234375 1.648438 2.972656 C 1.648438 2.570312 1.8125 2.402344 1.8125 1.949219 C 1.8125 1.699219 1.609375 1.375 1.609375 1.375 C 1.96875 1.414062 2.148438 1.75 2.046875 2.019531 C 2.101562 2.03125 2.160156 2.011719 2.203125 1.972656 C 2.226562 2.046875 2.1875 2.136719 2.132812 2.210938 C 2.175781 2.234375 2.210938 2.21875 2.28125 2.203125 C 2.273438 2.28125 2.230469 2.363281 2.117188 2.441406 C 2.441406 2.359375 2.640625 2.585938 2.640625 2.824219 C 2.640625 3.007812 2.515625 3.136719 2.394531 3.136719 C 2.355469 3.136719 2.292969 3.121094 2.261719 3.09375 C 2.238281 3.144531 2.253906 3.210938 2.273438 3.261719 C 2.183594 3.238281 2.125 3.183594 2.167969 3.070312 C 2.097656 3.066406 2.042969 3.039062 2.007812 2.996094 C 2.042969 2.945312 2.101562 2.921875 2.167969 2.921875 C 2.117188 2.816406 2.175781 2.757812 2.257812 2.710938 C 2.257812 2.710938 2.207031 2.921875 2.335938 2.921875 C 2.394531 2.921875 2.449219 2.902344 2.449219 2.8125 C 2.449219 2.734375 2.382812 2.628906 2.226562 2.636719 C 2.074219 2.640625 1.949219 2.742188 1.949219 2.992188 C 1.949219 3.222656 2.132812 3.335938 2.375 3.34375 C 2.59375 3.351562 2.757812 3.234375 2.757812 3.003906 C 2.757812 2.699219 2.328125 2.011719 2.328125 1.738281 C 2.328125 1.539062 2.503906 1.421875 2.683594 1.421875 C 2.910156 1.421875 3.105469 1.652344 3.105469 1.652344 Z M 2.96875 1.824219 "/>
<path style=" stroke:none;fill-rule:nonzero;fill:rgb(100%,92.54902%,17.647059%);fill-opacity:1;" d="M 3.019531 7.300781 C 3.019531 7.808594 2.570312 8.070312 2.214844 8.070312 C 1.738281 8.070312 1.484375 7.78125 1.484375 7.40625 C 1.484375 7.191406 1.523438 7.058594 1.621094 6.855469 L 2.714844 4.5625 C 2.753906 4.464844 2.773438 4.363281 2.765625 4.257812 C 2.765625 4.050781 2.566406 3.886719 2.359375 3.882812 C 2.171875 3.875 1.964844 4.058594 1.964844 4.265625 C 1.964844 4.515625 2.097656 4.628906 2.230469 4.628906 C 2.394531 4.628906 2.457031 4.5625 2.457031 4.445312 C 2.457031 4.363281 2.421875 4.328125 2.363281 4.328125 C 2.222656 4.328125 2.265625 4.519531 2.265625 4.519531 C 2.226562 4.511719 2.195312 4.488281 2.175781 4.457031 C 2.15625 4.421875 2.152344 4.382812 2.167969 4.34375 C 2.113281 4.332031 2.066406 4.304688 2.03125 4.261719 C 2.070312 4.226562 2.113281 4.199219 2.167969 4.1875 C 2.136719 4.078125 2.179688 4.023438 2.273438 4 C 2.257812 4.039062 2.253906 4.078125 2.261719 4.121094 C 2.410156 4.074219 2.640625 4.144531 2.640625 4.40625 C 2.640625 4.664062 2.460938 4.882812 2.128906 4.828125 C 2.207031 4.867188 2.246094 4.945312 2.257812 5.03125 C 2.195312 5.007812 2.128906 5.007812 2.128906 5.007812 C 2.167969 5.074219 2.222656 5.132812 2.21875 5.273438 C 2.15625 5.242188 2.097656 5.191406 2.023438 5.222656 C 2.144531 5.472656 1.992188 5.8125 1.601562 5.890625 C 1.746094 5.722656 1.8125 5.542969 1.8125 5.359375 C 1.8125 4.773438 1.652344 4.675781 1.652344 4.265625 C 1.660156 4.070312 1.753906 3.894531 1.914062 3.785156 L 1.914062 3.792969 C 1.816406 3.773438 1.734375 3.710938 1.683594 3.625 C 1.957031 3.546875 2.25 3.550781 2.523438 3.632812 C 2.710938 3.660156 2.875 3.769531 2.96875 3.933594 C 3.070312 4.164062 3.070312 4.425781 2.96875 4.65625 C 2.8125 4.980469 2.085938 6.546875 1.859375 7.035156 C 1.808594 7.140625 1.78125 7.25 1.78125 7.371094 C 1.78125 7.671875 2.054688 7.773438 2.207031 7.773438 C 2.394531 7.773438 2.582031 7.632812 2.582031 7.453125 C 2.582031 7.34375 2.523438 7.273438 2.433594 7.273438 C 2.226562 7.273438 2.238281 7.453125 2.28125 7.566406 C 2.148438 7.507812 2.074219 7.402344 2.09375 7.292969 C 2.011719 7.277344 1.9375 7.234375 1.886719 7.171875 C 1.933594 7.109375 2 7.058594 2.09375 7.054688 C 2.050781 6.882812 2.167969 6.808594 2.28125 6.769531 C 2.246094 6.894531 2.21875 7.042969 2.433594 7.042969 C 2.589844 7.042969 2.710938 7.066406 2.785156 7.171875 L 2.800781 6.496094 C 2.8125 6.296875 2.535156 6.296875 2.355469 6.359375 C 2.421875 6.128906 2.558594 6 2.875 6.03125 C 2.777344 5.992188 2.710938 5.894531 2.71875 5.789062 C 2.71875 5.597656 2.871094 5.386719 2.96875 5.324219 Z M 3.019531 7.300781 "/>
<path style=" stroke:none;fill-rule:nonzero;fill:rgb(100%,92.54902%,17.647059%);fill-opacity:1;" d="M 3.019531 8.824219 C 3.019531 8.316406 2.570312 8.054688 2.214844 8.054688 C 1.738281 8.054688 1.484375 8.34375 1.484375 8.71875 C 1.484375 8.933594 1.523438 9.066406 1.621094 9.269531 L 2.714844 11.5625 C 2.753906 11.660156 2.773438 11.761719 2.765625 11.867188 C 2.765625 12.074219 2.566406 12.238281 2.359375 12.242188 C 2.171875 12.25 1.964844 12.066406 1.964844 11.859375 C 1.964844 11.609375 2.097656 11.496094 2.230469 11.496094 C 2.394531 11.496094 2.457031 11.5625 2.457031 11.679688 C 2.457031 11.761719 2.421875 11.796875 2.363281 11.796875 C 2.222656 11.796875 2.265625 11.605469 2.265625 11.605469 C 2.226562 11.613281 2.195312 11.636719 2.175781 11.667969 C 2.15625 11.703125 2.152344 11.742188 2.167969 11.78125 C 2.113281 11.792969 2.066406 11.820312 2.03125 11.863281 C 2.070312 11.898438 2.113281 11.925781 2.167969 11.9375 C 2.136719 12.046875 2.179688 12.101562 2.273438 12.125 C 2.257812 12.085938 2.253906 12.046875 2.261719 12.003906 C 2.410156 12.050781 2.640625 11.980469 2.640625 11.71875 C 2.640625 11.460938 2.460938 11.242188 2.128906 11.296875 C 2.207031 11.257812 2.246094 11.179688 2.257812 11.09375 C 2.195312 11.117188 2.128906 11.117188 2.128906 11.117188 C 2.167969 11.050781 2.222656 10.992188 2.21875 10.851562 C 2.15625 10.882812 2.097656 10.933594 2.023438 10.902344 C 2.144531 10.652344 1.992188 10.3125 1.601562 10.234375 C 1.746094 10.402344 1.8125 10.582031 1.8125 10.765625 C 1.8125 11.351562 1.652344 11.449219 1.652344 11.859375 C 1.660156 12.054688 1.753906 12.230469 1.914062 12.339844 L 1.914062 12.332031 C 1.816406 12.351562 1.734375 12.414062 1.683594 12.5 C 1.957031 12.578125 2.25 12.574219 2.523438 12.492188 C 2.710938 12.464844 2.875 12.355469 2.96875 12.191406 C 3.070312 11.960938 3.070312 11.699219 2.96875 11.46875 C 2.8125 11.144531 2.085938 9.578125 1.859375 9.089844 C 1.808594 8.984375 1.78125 8.875 1.78125 8.753906 C 1.78125 8.453125 2.054688 8.351562 2.207031 8.351562 C 2.394531 8.351562 2.582031 8.492188 2.582031 8.671875 C 2.582031 8.78125 2.523438 8.851562 2.433594 8.851562 C 2.226562 8.851562 2.238281 8.671875 2.28125 8.558594 C 2.148438 8.617188 2.074219 8.722656 2.09375 8.832031 C 2.011719 8.847656 1.9375 8.890625 1.886719 8.953125 C 1.933594 9.015625 2 9.066406 2.09375 9.070312 C 2.050781 9.242188 2.167969 9.316406 2.28125 9.355469 C 2.246094 9.230469 2.21875 9.082031 2.433594 9.082031 C 2.589844 9.082031 2.710938 9.058594 2.785156 8.953125 L 2.800781 9.628906 C 2.8125 9.828125 2.535156 9.828125 2.355469 9.765625 C 2.421875 9.996094 2.558594 10.125 2.875 10.09375 C 2.777344 10.132812 2.710938 10.230469 2.71875 10.335938 C 2.71875 10.527344 2.871094 10.738281 2.96875 10.800781 Z M 3.019531 8.824219 "/>
<path style=" stroke:none;fill-rule:nonzero;fill:rgb(100%,92.54902%,17.647059%);fill-opacity:1;" d="M 2.96875 1.824219 C 2.96875 1.824219 3.207031 1.621094 3.289062 1.722656 C 3.417969 1.886719 2.886719 2.699219 2.886719 2.984375 C 2.886719 3.453125 3.199219 3.578125 3.582031 3.644531 C 3.839844 3.691406 4.257812 3.628906 4.257812 3.628906 C 4.179688 3.519531 4.125 3.488281 3.996094 3.480469 C 4.144531 3.40625 4.292969 3.234375 4.292969 2.972656 C 4.292969 2.570312 4.128906 2.402344 4.128906 1.949219 C 4.128906 1.699219 4.332031 1.375 4.332031 1.375 C 3.96875 1.414062 3.792969 1.75 3.894531 2.019531 C 3.835938 2.03125 3.777344 2.011719 3.738281 1.972656 C 3.710938 2.046875 3.753906 2.136719 3.808594 2.210938 C 3.765625 2.234375 3.730469 2.21875 3.660156 2.203125 C 3.664062 2.28125 3.710938 2.363281 3.824219 2.441406 C 3.496094 2.359375 3.300781 2.585938 3.300781 2.824219 C 3.300781 3.007812 3.421875 3.136719 3.546875 3.136719 C 3.585938 3.136719 3.644531 3.121094 3.679688 3.09375 C 3.703125 3.144531 3.6875 3.210938 3.664062 3.261719 C 3.753906 3.238281 3.8125 3.183594 3.773438 3.070312 C 3.839844 3.066406 3.894531 3.039062 3.933594 2.996094 C 3.894531 2.945312 3.839844 2.921875 3.773438 2.921875 C 3.820312 2.816406 3.765625 2.757812 3.683594 2.710938 C 3.683594 2.710938 3.734375 2.921875 3.605469 2.921875 C 3.542969 2.921875 3.488281 2.902344 3.488281 2.8125 C 3.488281 2.734375 3.554688 2.628906 3.710938 2.636719 C 3.867188 2.640625 3.992188 2.742188 3.992188 2.992188 C 3.992188 3.222656 3.804688 3.335938 3.5625 3.34375 C 3.347656 3.351562 3.179688 3.234375 3.179688 3.003906 C 3.179688 2.699219 3.613281 2.011719 3.613281 1.738281 C 3.613281 1.539062 3.433594 1.421875 3.257812 1.421875 C 3.03125 1.421875 2.835938 1.652344 2.835938 1.652344 Z M 2.96875 1.824219 "/>
<path style=" stroke:none;fill-rule:nonzero;fill:rgb(100%,92.54902%,17.647059%);fill-opacity:1;" d="M 2.921875 7.300781 C 2.921875 7.808594 3.371094 8.070312 3.726562 8.070312 C 4.199219 8.070312 4.453125 7.78125 4.453125 7.40625 C 4.453125 7.191406 4.414062 7.058594 4.320312 6.855469 L 3.226562 4.5625 C 3.183594 4.464844 3.167969 4.363281 3.175781 4.257812 C 3.175781 4.050781 3.375 3.886719 3.578125 3.882812 C 3.765625 3.875 3.976562 4.058594 3.976562 4.265625 C 3.976562 4.515625 3.84375 4.628906 3.710938 4.628906 C 3.546875 4.628906 3.480469 4.5625 3.480469 4.445312 C 3.480469 4.363281 3.519531 4.328125 3.578125 4.328125 C 3.71875 4.328125 3.675781 4.519531 3.675781 4.519531 C 3.714844 4.511719 3.746094 4.488281 3.765625 4.457031 C 3.78125 4.421875 3.785156 4.382812 3.773438 4.34375 C 3.824219 4.332031 3.871094 4.304688 3.90625 4.261719 C 3.871094 4.226562 3.828125 4.199219 3.773438 4.1875 C 3.804688 4.078125 3.757812 4.023438 3.664062 4 C 3.683594 4.039062 3.6875 4.078125 3.679688 4.121094 C 3.53125 4.074219 3.300781 4.144531 3.300781 4.40625 C 3.300781 4.664062 3.476562 4.882812 3.8125 4.828125 C 3.730469 4.867188 3.691406 4.945312 3.683594 5.03125 C 3.746094 5.007812 3.8125 5.007812 3.8125 5.007812 C 3.773438 5.074219 3.71875 5.132812 3.71875 5.273438 C 3.78125 5.242188 3.839844 5.191406 3.917969 5.222656 C 3.792969 5.472656 3.949219 5.8125 4.339844 5.890625 C 4.195312 5.722656 4.125 5.542969 4.125 5.359375 C 4.125 4.773438 4.285156 4.675781 4.285156 4.265625 C 4.28125 4.070312 4.183594 3.894531 4.027344 3.785156 L 4.027344 3.792969 C 4.125 3.773438 4.207031 3.710938 4.257812 3.625 C 3.980469 3.546875 3.691406 3.550781 3.414062 3.632812 C 3.230469 3.660156 3.066406 3.769531 2.96875 3.933594 C 2.871094 4.164062 2.871094 4.425781 2.96875 4.65625 C 3.125 4.980469 3.855469 6.546875 4.082031 7.035156 C 4.128906 7.140625 4.15625 7.25 4.15625 7.371094 C 4.15625 7.671875 3.886719 7.773438 3.730469 7.773438 C 3.546875 7.773438 3.355469 7.632812 3.355469 7.453125 C 3.355469 7.34375 3.417969 7.273438 3.503906 7.273438 C 3.714844 7.273438 3.703125 7.453125 3.660156 7.566406 C 3.792969 7.507812 3.867188 7.402344 3.847656 7.292969 C 3.925781 7.277344 4 7.234375 4.054688 7.171875 C 4.003906 7.109375 3.941406 7.058594 3.847656 7.054688 C 3.886719 6.882812 3.773438 6.808594 3.660156 6.769531 C 3.695312 6.894531 3.71875 7.042969 3.503906 7.042969 C 3.347656 7.042969 3.226562 7.066406 3.15625 7.171875 L 3.136719 6.496094 C 3.128906 6.296875 3.40625 6.296875 3.582031 6.359375 C 3.515625 6.128906 3.378906 6 3.0625 6.03125 C 3.164062 5.992188 3.226562 5.894531 3.222656 5.789062 C 3.222656 5.597656 3.070312 5.386719 2.96875 5.324219 Z M 2.921875 7.300781 "/>
<path style=" stroke:none;fill-rule:nonzero;fill:rgb(100%,92.54902%,17.647059%);fill-opacity:1;" d="M 2.921875 8.824219 C 2.921875 8.316406 3.371094 8.054688 3.726562 8.054688 C 4.199219 8.054688 4.453125 8.34375 4.453125 8.71875 C 4.453125 8.933594 4.414062 9.066406 4.320312 9.269531 L 3.226562 11.5625 C 3.183594 11.660156 3.167969 11.761719 3.175781 11.867188 C 3.175781 12.074219 3.375 12.238281 3.578125 12.242188 C 3.765625 12.25 3.976562 12.066406 3.976562 11.859375 C 3.976562 11.609375 3.84375 11.496094 3.710938 11.496094 C 3.546875 11.496094 3.480469 11.5625 3.480469 11.679688 C 3.480469 11.761719 3.519531 11.796875 3.578125 11.796875 C 3.71875 11.796875 3.675781 11.605469 3.675781 11.605469 C 3.714844 11.613281 3.746094 11.636719 3.765625 11.667969 C 3.78125 11.703125 3.785156 11.742188 3.773438 11.78125 C 3.824219 11.792969 3.871094 11.820312 3.90625 11.863281 C 3.871094 11.898438 3.828125 11.925781 3.773438 11.9375 C 3.804688 12.046875 3.757812 12.101562 3.664062 12.125 C 3.683594 12.085938 3.6875 12.046875 3.679688 12.003906 C 3.53125 12.050781 3.300781 11.980469 3.300781 11.71875 C 3.300781 11.460938 3.476562 11.242188 3.8125 11.296875 C 3.730469 11.257812 3.691406 11.179688 3.683594 11.09375 C 3.746094 11.117188 3.8125 11.117188 3.8125 11.117188 C 3.773438 11.050781 3.71875 10.992188 3.71875 10.851562 C 3.78125 10.882812 3.839844 10.933594 3.917969 10.902344 C 3.792969 10.652344 3.949219 10.3125 4.339844 10.234375 C 4.195312 10.402344 4.125 10.582031 4.125 10.765625 C 4.125 11.351562 4.285156 11.449219 4.285156 11.859375 C 4.28125 12.054688 4.183594 12.230469 4.027344 12.339844 L 4.027344 12.332031 C 4.125 12.351562 4.207031 12.414062 4.257812 12.5 C 3.980469 12.578125 3.691406 12.574219 3.414062 12.492188 C 3.230469 12.464844 3.066406 12.355469 2.96875 12.191406 C 2.871094 11.960938 2.871094 11.699219 2.96875 11.46875 C 3.125 11.144531 3.855469 9.578125 4.082031 9.089844 C 4.128906 8.984375 4.15625 8.875 4.15625 8.753906 C 4.15625 8.453125 3.886719 8.351562 3.730469 8.351562 C 3.546875 8.351562 3.355469 8.492188 3.355469 8.671875 C 3.355469 8.78125 3.417969 8.851562 3.503906 8.851562 C 3.714844 8.851562 3.703125 8.671875 3.660156 8.558594 C 3.792969 8.617188 3.867188 8.722656 3.847656 8.832031 C 3.925781 8.847656 4 8.890625 4.054688 8.953125 C 4.003906 9.015625 3.941406 9.066406 3.847656 9.070312 C 3.886719 9.242188 3.773438 9.316406 3.660156 9.355469 C 3.695312 9.230469 3.71875 9.082031 3.503906 9.082031 C 3.347656 9.082031 3.226562 9.058594 3.15625 8.953125 L 3.136719 9.628906 C 3.128906 9.828125 3.40625 9.828125 3.582031 9.765625 C 3.515625 9.996094 3.378906 10.125 3.0625 10.09375 C 3.164062 10.132812 3.226562 10.230469 3.222656 10.335938 C 3.222656 10.527344 3.070312 10.738281 2.96875 10.800781 Z M 2.921875 8.824219 "/>
<path style=" stroke:none;fill-rule:nonzero;fill:rgb(100%,92.54902%,17.647059%);fill-opacity:1;" d="M 2.96875 23.175781 C 2.96875 23.175781 2.730469 23.378906 2.652344 23.277344 C 2.523438 23.113281 3.050781 22.300781 3.050781 22.015625 C 3.050781 21.546875 2.738281 21.421875 2.359375 21.355469 C 2.101562 21.308594 1.683594 21.371094 1.683594 21.371094 C 1.761719 21.480469 1.8125 21.511719 1.945312 21.519531 C 1.796875 21.59375 1.648438 21.765625 1.648438 22.027344 C 1.648438 22.429688 1.8125 22.597656 1.8125 23.050781 C 1.8125 23.300781 1.609375 23.625 1.609375 23.625 C 1.96875 23.585938 2.148438 23.25 2.046875 22.980469 C 2.101562 22.96875 2.160156 22.988281 2.203125 23.027344 C 2.226562 22.953125 2.1875 22.863281 2.132812 22.789062 C 2.175781 22.765625 2.210938 22.78125 2.28125 22.796875 C 2.273438 22.71875 2.230469 22.636719 2.117188 22.558594 C 2.441406 22.640625 2.640625 22.414062 2.640625 22.175781 C 2.640625 21.992188 2.515625 21.863281 2.394531 21.863281 C 2.355469 21.863281 2.292969 21.878906 2.261719 21.90625 C 2.238281 21.855469 2.253906 21.789062 2.273438 21.738281 C 2.183594 21.761719 2.125 21.816406 2.167969 21.929688 C 2.097656 21.933594 2.042969 21.960938 2.007812 22.003906 C 2.042969 22.054688 2.101562 22.078125 2.167969 22.078125 C 2.117188 22.183594 2.175781 22.242188 2.257812 22.289062 C 2.257812 22.289062 2.207031 22.078125 2.335938 22.078125 C 2.394531 22.078125 2.449219 22.097656 2.449219 22.1875 C 2.449219 22.265625 2.382812 22.371094 2.226562 22.363281 C 2.074219 22.359375 1.949219 22.257812 1.949219 22.007812 C 1.949219 21.777344 2.132812 21.664062 2.375 21.65625 C 2.59375 21.648438 2.757812 21.765625 2.757812 21.996094 C 2.757812 22.300781 2.328125 22.988281 2.328125 23.261719 C 2.328125 23.460938 2.503906 23.578125 2.683594 23.578125 C 2.910156 23.578125 3.105469 23.347656 3.105469 23.347656 Z M 2.96875 23.175781 "/>
<path style=" stroke:none;fill-rule:nonzero;fill:rgb(100%,92.54902%,17.647059%);fill-opacity:1;" d="M 3.019531 17.699219 C 3.019531 17.191406 2.570312 16.929688 2.214844 16.929688 C 1.738281 16.929688 1.484375 17.21875 1.484375 17.59375 C 1.484375 17.808594 1.523438 17.941406 1.621094 18.144531 L 2.714844 20.4375 C 2.753906 20.535156 2.773438 20.636719 2.765625 20.742188 C 2.765625 20.949219 2.566406 21.113281 2.359375 21.117188 C 2.171875 21.125 1.964844 20.941406 1.964844 20.734375 C 1.964844 20.484375 2.097656 20.371094 2.230469 20.371094 C 2.394531 20.371094 2.457031 20.4375 2.457031 20.554688 C 2.457031 20.636719 2.421875 20.671875 2.363281 20.671875 C 2.222656 20.671875 2.265625 20.480469 2.265625 20.480469 C 2.226562 20.488281 2.195312 20.511719 2.175781 20.542969 C 2.15625 20.578125 2.152344 20.617188 2.167969 20.65625 C 2.113281 20.667969 2.066406 20.695312 2.03125 20.738281 C 2.070312 20.773438 2.113281 20.800781 2.167969 20.8125 C 2.136719 20.921875 2.179688 20.976562 2.273438 21 C 2.257812 20.960938 2.253906 20.921875 2.261719 20.878906 C 2.410156 20.925781 2.640625 20.855469 2.640625 20.59375 C 2.640625 20.335938 2.460938 20.117188 2.128906 20.171875 C 2.207031 20.132812 2.246094 20.054688 2.257812 19.96875 C 2.195312 19.992188 2.128906 19.992188 2.128906 19.992188 C 2.167969 19.925781 2.222656 19.867188 2.21875 19.726562 C 2.15625 19.757812 2.097656 19.808594 2.023438 19.777344 C 2.144531 19.527344 1.992188 19.1875 1.601562 19.109375 C 1.746094 19.277344 1.8125 19.457031 1.8125 19.640625 C 1.8125 20.226562 1.652344 20.324219 1.652344 20.734375 C 1.660156 20.929688 1.753906 21.105469 1.914062 21.214844 L 1.914062 21.207031 C 1.816406 21.226562 1.734375 21.289062 1.683594 21.375 C 1.957031 21.453125 2.25 21.449219 2.523438 21.367188 C 2.710938 21.339844 2.875 21.230469 2.96875 21.066406 C 3.070312 20.835938 3.070312 20.574219 2.96875 20.34375 C 2.8125 20.019531 2.085938 18.453125 1.859375 17.964844 C 1.808594 17.859375 1.78125 17.75 1.78125 17.628906 C 1.78125 17.328125 2.054688 17.226562 2.207031 17.226562 C 2.394531 17.226562 2.582031 17.367188 2.582031 17.546875 C 2.582031 17.65625 2.523438 17.726562 2.433594 17.726562 C 2.226562 17.726562 2.238281 17.546875 2.28125 17.433594 C 2.148438 17.492188 2.074219 17.597656 2.09375 17.707031 C 2.011719 17.722656 1.9375 17.765625 1.886719 17.828125 C 1.933594 17.890625 2 17.941406 2.09375 17.945312 C 2.050781 18.117188 2.167969 18.191406 2.28125 18.230469 C 2.246094 18.105469 2.21875 17.957031 2.433594 17.957031 C 2.589844 17.957031 2.710938 17.933594 2.785156 17.828125 L 2.800781 18.503906 C 2.8125 18.703125 2.535156 18.703125 2.355469 18.640625 C 2.421875 18.871094 2.558594 19 2.875 18.96875 C 2.777344 19.007812 2.710938 19.105469 2.71875 19.210938 C 2.71875 19.402344 2.871094 19.613281 2.96875 19.675781 Z M 3.019531 17.699219 "/>
<path style=" stroke:none;fill-rule:nonzero;fill:rgb(100%,92.54902%,17.647059%);fill-opacity:1;" d="M 3.019531 16.175781 C 3.019531 16.683594 2.570312 16.945312 2.214844 16.945312 C 1.738281 16.945312 1.484375 16.65625 1.484375 16.28125 C 1.484375 16.066406 1.523438 15.933594 1.621094 15.730469 L 2.714844 13.4375 C 2.753906 13.339844 2.773438 13.238281 2.765625 13.132812 C 2.765625 12.925781 2.566406 12.761719 2.359375 12.757812 C 2.171875 12.75 1.964844 12.933594 1.964844 13.140625 C 1.964844 13.390625 2.097656 13.503906 2.230469 13.503906 C 2.394531 13.503906 2.457031 13.4375 2.457031 13.320312 C 2.457031 13.238281 2.421875 13.203125 2.363281 13.203125 C 2.222656 13.203125 2.265625 13.394531 2.265625 13.394531 C 2.226562 13.386719 2.195312 13.363281 2.175781 13.332031 C 2.15625 13.296875 2.152344 13.257812 2.167969 13.21875 C 2.113281 13.207031 2.066406 13.179688 2.03125 13.136719 C 2.070312 13.101562 2.113281 13.074219 2.167969 13.0625 C 2.136719 12.953125 2.179688 12.898438 2.273438 12.875 C 2.257812 12.914062 2.253906 12.953125 2.261719 12.996094 C 2.410156 12.949219 2.640625 13.019531 2.640625 13.28125 C 2.640625 13.539062 2.460938 13.757812 2.128906 13.703125 C 2.207031 13.742188 2.246094 13.820312 2.257812 13.90625 C 2.195312 13.882812 2.128906 13.882812 2.128906 13.882812 C 2.167969 13.949219 2.222656 14.007812 2.21875 14.148438 C 2.15625 14.117188 2.097656 14.066406 2.023438 14.097656 C 2.144531 14.347656 1.992188 14.6875 1.601562 14.765625 C 1.746094 14.597656 1.8125 14.417969 1.8125 14.234375 C 1.8125 13.648438 1.652344 13.550781 1.652344 13.140625 C 1.660156 12.945312 1.753906 12.769531 1.914062 12.660156 L 1.914062 12.667969 C 1.816406 12.648438 1.734375 12.585938 1.683594 12.5 C 1.957031 12.421875 2.25 12.425781 2.523438 12.507812 C 2.710938 12.535156 2.875 12.644531 2.96875 12.808594 C 3.070312 13.039062 3.070312 13.300781 2.96875 13.53125 C 2.8125 13.855469 2.085938 15.421875 1.859375 15.910156 C 1.808594 16.015625 1.78125 16.125 1.78125 16.246094 C 1.78125 16.546875 2.054688 16.648438 2.207031 16.648438 C 2.394531 16.648438 2.582031 16.507812 2.582031 16.328125 C 2.582031 16.21875 2.523438 16.148438 2.433594 16.148438 C 2.226562 16.148438 2.238281 16.328125 2.28125 16.441406 C 2.148438 16.382812 2.074219 16.277344 2.09375 16.167969 C 2.011719 16.152344 1.9375 16.109375 1.886719 16.046875 C 1.933594 15.984375 2 15.933594 2.09375 15.929688 C 2.050781 15.757812 2.167969 15.683594 2.28125 15.644531 C 2.246094 15.769531 2.21875 15.917969 2.433594 15.917969 C 2.589844 15.917969 2.710938 15.941406 2.785156 16.046875 L 2.800781 15.371094 C 2.8125 15.171875 2.535156 15.171875 2.355469 15.234375 C 2.421875 15.003906 2.558594 14.875 2.875 14.90625 C 2.777344 14.867188 2.710938 14.769531 2.71875 14.664062 C 2.71875 14.472656 2.871094 14.261719 2.96875 14.199219 Z M 3.019531 16.175781 "/>
<path style=" stroke:none;fill-rule:nonzero;fill:rgb(100%,92.54902%,17.647059%);fill-opacity:1;" d="M 2.96875 23.175781 C 2.96875 23.175781 3.207031 23.378906 3.289062 23.277344 C 3.417969 23.113281 2.886719 22.300781 2.886719 22.015625 C 2.886719 21.546875 3.199219 21.421875 3.582031 21.355469 C 3.839844 21.308594 4.257812 21.371094 4.257812 21.371094 C 4.179688 21.480469 4.125 21.511719 3.996094 21.519531 C 4.144531 21.59375 4.292969 21.765625 4.292969 22.027344 C 4.292969 22.429688 4.128906 22.597656 4.128906 23.050781 C 4.128906 23.300781 4.332031 23.625 4.332031 23.625 C 3.96875 23.585938 3.792969 23.25 3.894531 22.980469 C 3.835938 22.96875 3.777344 22.988281 3.738281 23.027344 C 3.710938 22.953125 3.753906 22.863281 3.808594 22.789062 C 3.765625 22.765625 3.730469 22.78125 3.660156 22.796875 C 3.664062 22.71875 3.710938 22.636719 3.824219 22.558594 C 3.496094 22.640625 3.300781 22.414062 3.300781 22.175781 C 3.300781 21.992188 3.421875 21.863281 3.546875 21.863281 C 3.585938 21.863281 3.644531 21.878906 3.679688 21.90625 C 3.703125 21.855469 3.6875 21.789062 3.664062 21.738281 C 3.753906 21.761719 3.8125 21.816406 3.773438 21.929688 C 3.839844 21.933594 3.894531 21.960938 3.933594 22.003906 C 3.894531 22.054688 3.839844 22.078125 3.773438 22.078125 C 3.820312 22.183594 3.765625 22.242188 3.683594 22.289062 C 3.683594 22.289062 3.734375 22.078125 3.605469 22.078125 C 3.542969 22.078125 3.488281 22.097656 3.488281 22.1875 C 3.488281 22.265625 3.554688 22.371094 3.710938 22.363281 C 3.867188 22.359375 3.992188 22.257812 3.992188 22.007812 C 3.992188 21.777344 3.804688 21.664062 3.5625 21.65625 C 3.347656 21.648438 3.179688 21.765625 3.179688 21.996094 C 3.179688 22.300781 3.613281 22.988281 3.613281 23.261719 C 3.613281 23.460938 3.433594 23.578125 3.257812 23.578125 C 3.03125 23.578125 2.835938 23.347656 2.835938 23.347656 Z M 2.96875 23.175781 "/>
<path style=" stroke:none;fill-rule:nonzero;fill:rgb(100%,92.54902%,17.647059%);fill-opacity:1;" d="M 2.921875 17.699219 C 2.921875 17.191406 3.371094 16.929688 3.726562 16.929688 C 4.199219 16.929688 4.453125 17.21875 4.453125 17.59375 C 4.453125 17.808594 4.414062 17.941406 4.320312 18.144531 L 3.226562 20.4375 C 3.183594 20.535156 3.167969 20.636719 3.175781 20.742188 C 3.175781 20.949219 3.375 21.113281 3.578125 21.117188 C 3.765625 21.125 3.976562 20.941406 3.976562 20.734375 C 3.976562 20.484375 3.84375 20.371094 3.710938 20.371094 C 3.546875 20.371094 3.480469 20.4375 3.480469 20.554688 C 3.480469 20.636719 3.519531 20.671875 3.578125 20.671875 C 3.71875 20.671875 3.675781 20.480469 3.675781 20.480469 C 3.714844 20.488281 3.746094 20.511719 3.765625 20.542969 C 3.78125 20.578125 3.785156 20.617188 3.773438 20.65625 C 3.824219 20.667969 3.871094 20.695312 3.90625 20.738281 C 3.871094 20.773438 3.828125 20.800781 3.773438 20.8125 C 3.804688 20.921875 3.757812 20.976562 3.664062 21 C 3.683594 20.960938 3.6875 20.921875 3.679688 20.878906 C 3.53125 20.925781 3.300781 20.855469 3.300781 20.59375 C 3.300781 20.335938 3.476562 20.117188 3.8125 20.171875 C 3.730469 20.132812 3.691406 20.054688 3.683594 19.96875 C 3.746094 19.992188 3.8125 19.992188 3.8125 19.992188 C 3.773438 19.925781 3.71875 19.867188 3.71875 19.726562 C 3.78125 19.757812 3.839844 19.808594 3.917969 19.777344 C 3.792969 19.527344 3.949219 19.1875 4.339844 19.109375 C 4.195312 19.277344 4.125 19.457031 4.125 19.640625 C 4.125 20.226562 4.285156 20.324219 4.285156 20.734375 C 4.28125 20.929688 4.183594 21.105469 4.027344 21.214844 L 4.027344 21.207031 C 4.125 21.226562 4.207031 21.289062 4.257812 21.375 C 3.980469 21.453125 3.691406 21.449219 3.414062 21.367188 C 3.230469 21.339844 3.066406 21.230469 2.96875 21.066406 C 2.871094 20.835938 2.871094 20.574219 2.96875 20.34375 C 3.125 20.019531 3.855469 18.453125 4.082031 17.964844 C 4.128906 17.859375 4.15625 17.75 4.15625 17.628906 C 4.15625 17.328125 3.886719 17.226562 3.730469 17.226562 C 3.546875 17.226562 3.355469 17.367188 3.355469 17.546875 C 3.355469 17.65625 3.417969 17.726562 3.503906 17.726562 C 3.714844 17.726562 3.703125 17.546875 3.660156 17.433594 C 3.792969 17.492188 3.867188 17.597656 3.847656 17.707031 C 3.925781 17.722656 4 17.765625 4.054688 17.828125 C 4.003906 17.890625 3.941406 17.941406 3.847656 17.945312 C 3.886719 18.117188 3.773438 18.191406 3.660156 18.230469 C 3.695312 18.105469 3.71875 17.957031 3.503906 17.957031 C 3.347656 17.957031 3.226562 17.933594 3.15625 17.828125 L 3.136719 18.503906 C 3.128906 18.703125 3.40625 18.703125 3.582031 18.640625 C 3.515625 18.871094 3.378906 19 3.0625 18.96875 C 3.164062 19.007812 3.226562 19.105469 3.222656 19.210938 C 3.222656 19.402344 3.070312 19.613281 2.96875 19.675781 Z M 2.921875 17.699219 "/>
<path style=" stroke:none;fill-rule:nonzero;fill:rgb(100%,92.54902%,17.647059%);fill-opacity:1;" d="M 2.921875 16.175781 C 2.921875 16.683594 3.371094 16.945312 3.726562 16.945312 C 4.199219 16.945312 4.453125 16.65625 4.453125 16.28125 C 4.453125 16.066406 4.414062 15.933594 4.320312 15.730469 L 3.226562 13.4375 C 3.183594 13.339844 3.167969 13.238281 3.175781 13.132812 C 3.175781 12.925781 3.375 12.761719 3.578125 12.757812 C 3.765625 12.75 3.976562 12.933594 3.976562 13.140625 C 3.976562 13.390625 3.84375 13.503906 3.710938 13.503906 C 3.546875 13.503906 3.480469 13.4375 3.480469 13.320312 C 3.480469 13.238281 3.519531 13.203125 3.578125 13.203125 C 3.71875 13.203125 3.675781 13.394531 3.675781 13.394531 C 3.714844 13.386719 3.746094 13.363281 3.765625 13.332031 C 3.78125 13.296875 3.785156 13.257812 3.773438 13.21875 C 3.824219 13.207031 3.871094 13.179688 3.90625 13.136719 C 3.871094 13.101562 3.828125 13.074219 3.773438 13.0625 C 3.804688 12.953125 3.757812 12.898438 3.664062 12.875 C 3.683594 12.914062 3.6875 12.953125 3.679688 12.996094 C 3.53125 12.949219 3.300781 13.019531 3.300781 13.28125 C 3.300781 13.539062 3.476562 13.757812 3.8125 13.703125 C 3.730469 13.742188 3.691406 13.820312 3.683594 13.90625 C 3.746094 13.882812 3.8125 13.882812 3.8125 13.882812 C 3.773438 13.949219 3.71875 14.007812 3.71875 14.148438 C 3.78125 14.117188 3.839844 14.066406 3.917969 14.097656 C 3.792969 14.347656 3.949219 14.6875 4.339844 14.765625 C 4.195312 14.597656 4.125 14.417969 4.125 14.234375 C 4.125 13.648438 4.285156 13.550781 4.285156 13.140625 C 4.28125 12.945312 4.183594 12.769531 4.027344 12.660156 L 4.027344 12.667969 C 4.125 12.648438 4.207031 12.585938 4.257812 12.5 C 3.980469 12.421875 3.691406 12.425781 3.414062 12.507812 C 3.230469 12.535156 3.066406 12.644531 2.96875 12.808594 C 2.871094 13.039062 2.871094 13.300781 2.96875 13.53125 C 3.125 13.855469 3.855469 15.421875 4.082031 15.910156 C 4.128906 16.015625 4.15625 16.125 4.15625 16.246094 C 4.15625 16.546875 3.886719 16.648438 3.730469 16.648438 C 3.546875 16.648438 3.355469 16.507812 3.355469 16.328125 C 3.355469 16.21875 3.417969 16.148438 3.503906 16.148438 C 3.714844 16.148438 3.703125 16.328125 3.660156 16.441406 C 3.792969 16.382812 3.867188 16.277344 3.847656 16.167969 C 3.925781 16.152344 4 16.109375 4.054688 16.046875 C 4.003906 15.984375 3.941406 15.933594 3.847656 15.929688 C 3.886719 15.757812 3.773438 15.683594 3.660156 15.644531 C 3.695312 15.769531 3.71875 15.917969 3.503906 15.917969 C 3.347656 15.917969 3.226562 15.941406 3.15625 16.046875 L 3.136719 15.371094 C 3.128906 15.171875 3.40625 15.171875 3.582031 15.234375 C 3.515625 15.003906 3.378906 14.875 3.0625 14.90625 C 3.164062 14.867188 3.226562 14.769531 3.222656 14.664062 C 3.222656 14.472656 3.070312 14.261719 2.96875 14.199219 Z M 2.921875 16.175781 "/>
</g>
</svg>
