<?xml version="1.0" encoding="UTF-8"?>
<svg xmlns="http://www.w3.org/2000/svg" xmlns:xlink="http://www.w3.org/1999/xlink" width="px" height="25px" viewBox="0 0 33 25" version="1.1">
<defs>
<clipPath id="clip1">
  <path d="M 0 0 L 33 0 L 33 25 L -0.00390625 25 Z M 0 0 "/>
</clipPath>
<clipPath id="clip2">
  <path d="M 0 16 L 33 16 L 33 25 L 0 25 Z M 0 16 "/>
</clipPath>
<clipPath id="clip3">
  <path d="M 0 0 L 33 0 L 33 25 L -0.00390625 25 Z M 0 0 "/>
</clipPath>
<clipPath id="clip4">
  <path d="M 0 8 L 33 8 L 33 17 L 0 17 Z M 0 8 "/>
</clipPath>
<clipPath id="clip5">
  <path d="M 0 0 L 33 0 L 33 25 L -0.00390625 25 Z M 0 0 "/>
</clipPath>
<clipPath id="clip6">
  <path d="M 4 3 L 12 3 L 12 13 L 4 13 Z M 4 3 "/>
</clipPath>
<clipPath id="clip7">
  <path d="M 0 0 L 33 0 L 33 25 L -0.00390625 25 Z M 0 0 "/>
</clipPath>
<clipPath id="clip8">
  <path d="M 4 3 L 12 3 L 12 12 L 4 12 Z M 4 3 "/>
</clipPath>
<clipPath id="clip9">
  <path d="M 0 0 L 33 0 L 33 25 L -0.00390625 25 Z M 0 0 "/>
</clipPath>
<clipPath id="clip10">
  <path d="M 7 5 L 9 5 L 9 7 L 7 7 Z M 7 5 "/>
</clipPath>
<clipPath id="clip11">
  <path d="M 0 0 L 33 0 L 33 25 L -0.00390625 25 Z M 0 0 "/>
</clipPath>
<clipPath id="clip12">
  <path d="M 5 6 L 11 6 L 11 12 L 5 12 Z M 5 6 "/>
</clipPath>
<clipPath id="clip13">
  <path d="M 0 0 L 33 0 L 33 25 L -0.00390625 25 Z M 0 0 "/>
</clipPath>
<clipPath id="clip14">
  <path d="M 6 4 L 10 4 L 10 5 L 6 5 Z M 6 4 "/>
</clipPath>
<clipPath id="clip15">
  <path d="M 0 0 L 33 0 L 33 25 L -0.00390625 25 Z M 0 0 "/>
</clipPath>
<clipPath id="clip16">
  <path d="M 5 9 L 11 9 L 11 11 L 5 11 Z M 5 9 "/>
</clipPath>
<clipPath id="clip17">
  <path d="M 0 0 L 33 0 L 33 25 L -0.00390625 25 Z M 0 0 "/>
</clipPath>
</defs>
<g id="surface1">
<g clip-path="url(#clip1)" clip-rule="nonzero">
<rect x="0" y="0" width="33" height="25" style="fill:rgb(100%,100%,100%);fill-opacity:1;stroke:none;"/>
</g>
<g clip-path="url(#clip2)" clip-rule="nonzero">
<g clip-path="url(#clip3)" clip-rule="nonzero">
<path style=" stroke:none;fill-rule:evenodd;fill:rgb(83.529412%,0%,0%);fill-opacity:1;" d="M -2.269531 16.664062 L 47.230469 16.664062 L 47.230469 25 L -2.269531 25 Z M -2.269531 16.664062 "/>
</g>
</g>
<g clip-path="url(#clip4)" clip-rule="nonzero">
<g clip-path="url(#clip5)" clip-rule="nonzero">
<path style=" stroke:none;fill-rule:evenodd;fill:rgb(0%,0%,74.901961%);fill-opacity:1;" d="M -2.269531 8.335938 L 47.230469 8.335938 L 47.230469 16.664062 L -2.269531 16.664062 Z M -2.269531 8.335938 "/>
</g>
</g>
<g clip-path="url(#clip6)" clip-rule="nonzero">
<g clip-path="url(#clip7)" clip-rule="nonzero">
<path style=" stroke:none;fill-rule:evenodd;fill:rgb(83.529412%,0%,0%);fill-opacity:1;" d="M 11.769531 4.539062 C 11.574219 7.546875 11.457031 9.199219 11.007812 9.960938 C 10.515625 10.78125 10.042969 11.382812 8.121094 12.109375 C 6.207031 11.382812 5.734375 10.78125 5.242188 9.960938 C 4.789062 9.199219 4.675781 7.546875 4.484375 4.539062 L 4.761719 4.445312 C 5.332031 4.265625 5.757812 4.125 6.074219 4.0625 C 6.523438 3.964844 6.910156 3.859375 8.117188 3.832031 C 9.328125 3.851562 9.714844 3.96875 10.164062 4.066406 C 10.472656 4.136719 10.917969 4.261719 11.484375 4.445312 Z M 11.769531 4.539062 "/>
</g>
</g>
<g clip-path="url(#clip8)" clip-rule="nonzero">
<g clip-path="url(#clip9)" clip-rule="nonzero">
<path style=" stroke:none;fill-rule:evenodd;fill:rgb(0%,0%,74.901961%);fill-opacity:1;" d="M 11.488281 4.445312 C 11.304688 7.445312 11.148438 8.824219 10.90625 9.484375 C 10.441406 10.613281 9.707031 11.234375 8.121094 11.828125 C 6.539062 11.234375 5.800781 10.613281 5.332031 9.484375 C 5.09375 8.820312 4.945312 7.445312 4.761719 4.4375 C 5.324219 4.261719 5.757812 4.125 6.074219 4.0625 C 6.523438 3.964844 6.910156 3.851562 8.117188 3.832031 C 9.328125 3.851562 9.714844 3.964844 10.164062 4.0625 C 10.609375 4.164062 11.050781 4.289062 11.488281 4.4375 Z M 11.488281 4.445312 "/>
</g>
</g>
<g clip-path="url(#clip10)" clip-rule="nonzero">
<g clip-path="url(#clip11)" clip-rule="nonzero">
<path style=" stroke:none;fill-rule:evenodd;fill:rgb(100%,87.45098%,0%);fill-opacity:1;" d="M 8.121094 5.359375 L 8.195312 5.542969 L 8.535156 5.589844 L 8.316406 5.722656 L 8.523438 5.863281 L 8.21875 5.914062 L 8.121094 6.078125 L 8.027344 5.910156 L 7.734375 5.871094 L 7.929688 5.722656 L 7.726562 5.589844 L 8.050781 5.542969 L 8.121094 5.363281 Z M 8.121094 5.359375 "/>
</g>
</g>
<g clip-path="url(#clip12)" clip-rule="nonzero">
<g clip-path="url(#clip13)" clip-rule="nonzero">
<path style=" stroke:none;fill-rule:evenodd;fill:rgb(100%,100%,100%);fill-opacity:1;" d="M 10.796875 8.769531 L 10.609375 8.625 L 10.476562 8.398438 L 10.214844 8.167969 L 10.074219 7.941406 L 9.816406 7.699219 L 9.6875 7.472656 L 9.542969 7.359375 L 9.457031 7.265625 L 9.214844 7.476562 L 9.089844 7.707031 L 8.929688 7.851562 L 8.75 7.710938 L 8.621094 7.476562 L 8.121094 6.582031 L 7.625 7.476562 L 7.496094 7.710938 L 7.316406 7.851562 L 7.15625 7.707031 L 7.027344 7.476562 L 6.789062 7.265625 L 6.695312 7.355469 L 6.558594 7.472656 L 6.429688 7.699219 L 6.171875 7.941406 L 6.03125 8.167969 L 5.769531 8.398438 L 5.636719 8.625 L 5.449219 8.769531 C 5.554688 9.441406 5.871094 10.0625 6.347656 10.542969 C 6.867188 10.992188 7.46875 11.332031 8.117188 11.542969 C 8.773438 11.335938 9.378906 10.996094 9.898438 10.542969 C 10.175781 10.25 10.699219 9.597656 10.796875 8.769531 Z M 10.796875 8.769531 "/>
</g>
</g>
<g clip-path="url(#clip14)" clip-rule="nonzero">
<g clip-path="url(#clip15)" clip-rule="nonzero">
<path style=" stroke:none;fill-rule:evenodd;fill:rgb(100%,87.45098%,0%);fill-opacity:1;" d="M 8.914062 4.097656 L 8.992188 4.277344 L 9.332031 4.328125 L 9.109375 4.457031 L 9.320312 4.601562 L 9.015625 4.648438 L 8.921875 4.816406 L 8.824219 4.644531 L 8.535156 4.605469 L 8.726562 4.457031 L 8.523438 4.328125 L 8.84375 4.277344 L 8.921875 4.097656 Z M 7.320312 4.097656 L 7.398438 4.277344 L 7.734375 4.320312 L 7.519531 4.453125 L 7.726562 4.59375 L 7.421875 4.644531 L 7.324219 4.808594 L 7.230469 4.644531 L 6.9375 4.601562 L 7.132812 4.453125 L 6.929688 4.320312 L 7.253906 4.273438 L 7.324219 4.09375 Z M 7.320312 4.097656 "/>
</g>
</g>
<g clip-path="url(#clip16)" clip-rule="nonzero">
<g clip-path="url(#clip17)" clip-rule="nonzero">
<path style=" stroke:none;fill-rule:evenodd;fill:rgb(0%,0%,74.901961%);fill-opacity:1;" d="M 10.378906 9.914062 L 10.023438 9.914062 L 9.683594 9.886719 L 9.28125 9.691406 L 8.828125 9.691406 L 8.4375 9.886719 L 8.121094 9.917969 L 7.8125 9.886719 L 7.421875 9.691406 L 6.960938 9.691406 L 6.558594 9.886719 L 6.222656 9.917969 L 5.855469 9.914062 L 5.683594 9.609375 L 5.6875 9.601562 L 6.226562 9.691406 L 6.5625 9.667969 L 6.960938 9.46875 L 7.417969 9.46875 L 7.8125 9.664062 L 8.121094 9.691406 L 8.4375 9.664062 L 8.828125 9.46875 L 9.28125 9.46875 L 9.6875 9.664062 L 10.023438 9.691406 L 10.542969 9.59375 L 10.554688 9.613281 L 10.375 9.914062 Z M 6.203125 10.375 L 6.5625 10.351562 L 6.960938 10.15625 L 7.417969 10.15625 L 7.8125 10.351562 L 8.121094 10.375 L 8.433594 10.351562 L 8.828125 10.15625 L 9.28125 10.15625 L 9.683594 10.351562 L 10.046875 10.375 L 10.277344 10.082031 L 10.273438 10.082031 L 10.023438 10.152344 L 9.6875 10.125 L 9.289062 9.929688 L 8.832031 9.929688 L 8.4375 10.125 L 8.128906 10.15625 L 7.8125 10.125 L 7.421875 9.929688 L 6.960938 9.929688 L 6.558594 10.125 L 6.222656 10.15625 L 5.980469 10.09375 L 5.980469 10.101562 L 6.199219 10.375 Z M 6.203125 10.375 "/>
</g>
</g>
</g>
</svg>
