<?xml version="1.0" encoding="UTF-8"?>
<svg xmlns="http://www.w3.org/2000/svg" xmlns:xlink="http://www.w3.org/1999/xlink" width="px" height="25px" viewBox="0 0 33 25" version="1.1">
<g id="surface1">
<rect x="0" y="0" width="33" height="25" style="fill:rgb(93.333333%,10.980392%,14.509804%);fill-opacity:1;stroke:none;"/>
<path style=" stroke:none;fill-rule:nonzero;fill:rgb(4.313725%,30.588235%,63.529412%);fill-opacity:1;" d="M 0 0 L 33 0 L 33 16.667969 L 0 16.667969 Z M 0 0 "/>
<path style=" stroke:none;fill-rule:nonzero;fill:rgb(100%,100%,100%);fill-opacity:1;" d="M 0 0 L 33 0 L 33 8.332031 L 0 8.332031 Z M 0 0 "/>
<path style=" stroke:none;fill-rule:nonzero;fill:rgb(100%,100%,100%);fill-opacity:1;" d="M 12.015625 19.3125 C 9.796875 18.234375 6.621094 16.089844 6.621094 11.855469 C 6.621094 7.613281 6.828125 5.6875 6.828125 5.6875 L 17.207031 5.6875 C 17.207031 5.6875 17.40625 7.613281 17.40625 11.855469 C 17.40625 16.09375 14.230469 18.230469 12.015625 19.3125 Z M 12.015625 19.3125 "/>
<path style=" stroke:none;fill-rule:nonzero;fill:rgb(93.333333%,10.980392%,14.509804%);fill-opacity:1;" d="M 12.015625 18.75 C 9.976562 17.761719 7.0625 15.792969 7.0625 11.90625 C 7.0625 8.019531 7.25 6.25 7.25 6.25 L 16.777344 6.25 C 16.777344 6.25 16.957031 8.019531 16.957031 11.90625 C 16.964844 15.796875 14.050781 17.761719 12.015625 18.75 Z M 12.015625 18.75 "/>
<path style=" stroke:none;fill-rule:nonzero;fill:rgb(100%,100%,100%);fill-opacity:1;" d="M 12.445312 10.886719 C 13 10.894531 14.078125 10.917969 15.03125 10.59375 C 15.03125 10.59375 15.011719 10.941406 15.011719 11.34375 C 15.011719 11.746094 15.035156 12.09375 15.035156 12.09375 C 14.160156 11.796875 13.070312 11.792969 12.445312 11.796875 L 12.445312 13.941406 L 11.582031 13.941406 L 11.582031 11.796875 C 10.960938 11.792969 9.875 11.796875 8.996094 12.09375 C 8.996094 12.09375 9.023438 11.746094 9.023438 11.34375 C 9.023438 10.9375 8.996094 10.59375 8.996094 10.59375 C 9.953125 10.917969 11.027344 10.894531 11.574219 10.886719 L 11.574219 9.535156 C 11.074219 9.535156 10.355469 9.558594 9.535156 9.832031 C 9.535156 9.832031 9.558594 9.488281 9.558594 9.082031 C 9.558594 8.683594 9.535156 8.332031 9.535156 8.332031 C 10.355469 8.609375 11.074219 8.636719 11.574219 8.628906 C 11.550781 7.777344 11.300781 6.703125 11.300781 6.703125 C 11.300781 6.703125 11.8125 6.738281 12.015625 6.738281 C 12.21875 6.738281 12.726562 6.703125 12.726562 6.703125 C 12.726562 6.703125 12.476562 7.777344 12.453125 8.628906 C 12.953125 8.636719 13.675781 8.609375 14.496094 8.332031 C 14.496094 8.332031 14.46875 8.683594 14.46875 9.082031 C 14.46875 9.488281 14.496094 9.832031 14.496094 9.832031 C 13.832031 9.617188 13.140625 9.519531 12.445312 9.535156 L 12.445312 10.890625 Z M 12.445312 10.886719 "/>
<path style=" stroke:none;fill-rule:nonzero;fill:rgb(4.313725%,30.588235%,63.529412%);fill-opacity:1;" d="M 12.015625 13.714844 C 10.988281 13.714844 10.441406 15.144531 10.441406 15.144531 C 10.441406 15.144531 10.132812 14.46875 9.296875 14.46875 C 8.730469 14.46875 8.316406 14.972656 8.050781 15.449219 C 9.082031 17.097656 10.726562 18.121094 12.015625 18.75 C 13.304688 18.125 14.953125 17.097656 15.980469 15.449219 C 15.710938 14.980469 15.296875 14.46875 14.730469 14.46875 C 13.894531 14.46875 13.585938 15.144531 13.585938 15.144531 C 13.585938 15.144531 13.046875 13.714844 12.015625 13.714844 Z M 12.015625 13.714844 "/>
</g>
</svg>
