<?xml version="1.0" encoding="UTF-8"?>
<svg xmlns="http://www.w3.org/2000/svg" xmlns:xlink="http://www.w3.org/1999/xlink" width="px" height="25px" viewBox="0 0 33 25" version="1.1">
<defs>
<clipPath id="clip1">
  <path d="M 0.824219 0.574219 L 2.371094 0.574219 L 2.371094 2 L 0.824219 2 Z M 0.824219 0.574219 "/>
</clipPath>
<clipPath id="clip2">
  <path d="M 3.96875 0.574219 L 5.515625 0.574219 L 5.515625 2 L 3.96875 2 Z M 3.96875 0.574219 "/>
</clipPath>
<clipPath id="clip3">
  <path d="M 7.117188 0.574219 L 8.664062 0.574219 L 8.664062 2 L 7.117188 2 Z M 7.117188 0.574219 "/>
</clipPath>
<clipPath id="clip4">
  <path d="M 10.261719 0.574219 L 11.808594 0.574219 L 11.808594 2 L 10.261719 2 Z M 10.261719 0.574219 "/>
</clipPath>
<clipPath id="clip5">
  <path d="M 13.40625 0.574219 L 14.953125 0.574219 L 14.953125 2 L 13.40625 2 Z M 13.40625 0.574219 "/>
</clipPath>
<clipPath id="clip6">
  <path d="M 16.5 0.574219 L 18 0.574219 L 18 2 L 16.5 2 Z M 16.5 0.574219 "/>
</clipPath>
<clipPath id="clip7">
  <path d="M 2.421875 1.925781 L 3.96875 1.925781 L 3.96875 3.488281 L 2.421875 3.488281 Z M 2.421875 1.925781 "/>
</clipPath>
<clipPath id="clip8">
  <path d="M 5.570312 1.925781 L 7.117188 1.925781 L 7.117188 3.488281 L 5.570312 3.488281 Z M 5.570312 1.925781 "/>
</clipPath>
<clipPath id="clip9">
  <path d="M 8.714844 1.925781 L 10.261719 1.925781 L 10.261719 3.488281 L 8.714844 3.488281 Z M 8.714844 1.925781 "/>
</clipPath>
<clipPath id="clip10">
  <path d="M 11.808594 1.925781 L 13.355469 1.925781 L 13.355469 3.488281 L 11.808594 3.488281 Z M 11.808594 1.925781 "/>
</clipPath>
<clipPath id="clip11">
  <path d="M 14.953125 1.925781 L 16.5 1.925781 L 16.5 3.488281 L 14.953125 3.488281 Z M 14.953125 1.925781 "/>
</clipPath>
<clipPath id="clip12">
  <path d="M 0.824219 3.28125 L 2.371094 3.28125 L 2.371094 4.84375 L 0.824219 4.84375 Z M 0.824219 3.28125 "/>
</clipPath>
<clipPath id="clip13">
  <path d="M 3.96875 3.28125 L 5.515625 3.28125 L 5.515625 4.84375 L 3.96875 4.84375 Z M 3.96875 3.28125 "/>
</clipPath>
<clipPath id="clip14">
  <path d="M 7.117188 3.28125 L 8.664062 3.28125 L 8.664062 4.84375 L 7.117188 4.84375 Z M 7.117188 3.28125 "/>
</clipPath>
<clipPath id="clip15">
  <path d="M 10.261719 3.28125 L 11.808594 3.28125 L 11.808594 4.84375 L 10.261719 4.84375 Z M 10.261719 3.28125 "/>
</clipPath>
<clipPath id="clip16">
  <path d="M 13.40625 3.28125 L 14.953125 3.28125 L 14.953125 4.84375 L 13.40625 4.84375 Z M 13.40625 3.28125 "/>
</clipPath>
<clipPath id="clip17">
  <path d="M 16.5 3.28125 L 18 3.28125 L 18 4.84375 L 16.5 4.84375 Z M 16.5 3.28125 "/>
</clipPath>
<clipPath id="clip18">
  <path d="M 2.421875 4.636719 L 3.96875 4.636719 L 3.96875 6.199219 L 2.421875 6.199219 Z M 2.421875 4.636719 "/>
</clipPath>
<clipPath id="clip19">
  <path d="M 5.570312 4.636719 L 7.117188 4.636719 L 7.117188 6.199219 L 5.570312 6.199219 Z M 5.570312 4.636719 "/>
</clipPath>
<clipPath id="clip20">
  <path d="M 8.714844 4.636719 L 10.261719 4.636719 L 10.261719 6.199219 L 8.714844 6.199219 Z M 8.714844 4.636719 "/>
</clipPath>
<clipPath id="clip21">
  <path d="M 11.808594 4.636719 L 13.355469 4.636719 L 13.355469 6.199219 L 11.808594 6.199219 Z M 11.808594 4.636719 "/>
</clipPath>
<clipPath id="clip22">
  <path d="M 14.953125 4.636719 L 16.5 4.636719 L 16.5 6.199219 L 14.953125 6.199219 Z M 14.953125 4.636719 "/>
</clipPath>
<clipPath id="clip23">
  <path d="M 0.824219 5.988281 L 2.371094 5.988281 L 2.371094 7.550781 L 0.824219 7.550781 Z M 0.824219 5.988281 "/>
</clipPath>
<clipPath id="clip24">
  <path d="M 3.96875 5.988281 L 5.515625 5.988281 L 5.515625 7.550781 L 3.96875 7.550781 Z M 3.96875 5.988281 "/>
</clipPath>
<clipPath id="clip25">
  <path d="M 7.117188 5.988281 L 8.664062 5.988281 L 8.664062 7.550781 L 7.117188 7.550781 Z M 7.117188 5.988281 "/>
</clipPath>
<clipPath id="clip26">
  <path d="M 10.261719 5.988281 L 11.808594 5.988281 L 11.808594 7.550781 L 10.261719 7.550781 Z M 10.261719 5.988281 "/>
</clipPath>
<clipPath id="clip27">
  <path d="M 13.40625 5.988281 L 14.953125 5.988281 L 14.953125 7.550781 L 13.40625 7.550781 Z M 13.40625 5.988281 "/>
</clipPath>
<clipPath id="clip28">
  <path d="M 16.5 5.988281 L 18 5.988281 L 18 7.550781 L 16.5 7.550781 Z M 16.5 5.988281 "/>
</clipPath>
<clipPath id="clip29">
  <path d="M 2.421875 7.34375 L 3.96875 7.34375 L 3.96875 8.90625 L 2.421875 8.90625 Z M 2.421875 7.34375 "/>
</clipPath>
<clipPath id="clip30">
  <path d="M 5.570312 7.34375 L 7.117188 7.34375 L 7.117188 8.90625 L 5.570312 8.90625 Z M 5.570312 7.34375 "/>
</clipPath>
<clipPath id="clip31">
  <path d="M 8.714844 7.34375 L 10.261719 7.34375 L 10.261719 8.90625 L 8.714844 8.90625 Z M 8.714844 7.34375 "/>
</clipPath>
<clipPath id="clip32">
  <path d="M 11.808594 7.34375 L 13.355469 7.34375 L 13.355469 8.90625 L 11.808594 8.90625 Z M 11.808594 7.34375 "/>
</clipPath>
<clipPath id="clip33">
  <path d="M 14.953125 7.34375 L 16.5 7.34375 L 16.5 8.90625 L 14.953125 8.90625 Z M 14.953125 7.34375 "/>
</clipPath>
<clipPath id="clip34">
  <path d="M 0.824219 8.644531 L 2.371094 8.644531 L 2.371094 10.207031 L 0.824219 10.207031 Z M 0.824219 8.644531 "/>
</clipPath>
<clipPath id="clip35">
  <path d="M 3.96875 8.644531 L 5.515625 8.644531 L 5.515625 10.207031 L 3.96875 10.207031 Z M 3.96875 8.644531 "/>
</clipPath>
<clipPath id="clip36">
  <path d="M 7.117188 8.644531 L 8.664062 8.644531 L 8.664062 10.207031 L 7.117188 10.207031 Z M 7.117188 8.644531 "/>
</clipPath>
<clipPath id="clip37">
  <path d="M 10.261719 8.644531 L 11.808594 8.644531 L 11.808594 10.207031 L 10.261719 10.207031 Z M 10.261719 8.644531 "/>
</clipPath>
<clipPath id="clip38">
  <path d="M 13.40625 8.644531 L 14.953125 8.644531 L 14.953125 10.207031 L 13.40625 10.207031 Z M 13.40625 8.644531 "/>
</clipPath>
<clipPath id="clip39">
  <path d="M 16.5 8.644531 L 18 8.644531 L 18 10.207031 L 16.5 10.207031 Z M 16.5 8.644531 "/>
</clipPath>
<clipPath id="clip40">
  <path d="M 2.421875 10 L 3.96875 10 L 3.96875 11.5625 L 2.421875 11.5625 Z M 2.421875 10 "/>
</clipPath>
<clipPath id="clip41">
  <path d="M 5.570312 10 L 7.117188 10 L 7.117188 11.5625 L 5.570312 11.5625 Z M 5.570312 10 "/>
</clipPath>
<clipPath id="clip42">
  <path d="M 8.714844 10 L 10.261719 10 L 10.261719 11.5625 L 8.714844 11.5625 Z M 8.714844 10 "/>
</clipPath>
<clipPath id="clip43">
  <path d="M 11.808594 10 L 13.355469 10 L 13.355469 11.5625 L 11.808594 11.5625 Z M 11.808594 10 "/>
</clipPath>
<clipPath id="clip44">
  <path d="M 14.953125 10 L 16.5 10 L 16.5 11.5625 L 14.953125 11.5625 Z M 14.953125 10 "/>
</clipPath>
<clipPath id="clip45">
  <path d="M 0.824219 11.355469 L 2.371094 11.355469 L 2.371094 12.917969 L 0.824219 12.917969 Z M 0.824219 11.355469 "/>
</clipPath>
<clipPath id="clip46">
  <path d="M 3.96875 11.355469 L 5.515625 11.355469 L 5.515625 12.917969 L 3.96875 12.917969 Z M 3.96875 11.355469 "/>
</clipPath>
<clipPath id="clip47">
  <path d="M 7.117188 11.355469 L 8.664062 11.355469 L 8.664062 12.917969 L 7.117188 12.917969 Z M 7.117188 11.355469 "/>
</clipPath>
<clipPath id="clip48">
  <path d="M 10.261719 11.355469 L 11.808594 11.355469 L 11.808594 12.917969 L 10.261719 12.917969 Z M 10.261719 11.355469 "/>
</clipPath>
<clipPath id="clip49">
  <path d="M 13.40625 11.355469 L 14.953125 11.355469 L 14.953125 12.917969 L 13.40625 12.917969 Z M 13.40625 11.355469 "/>
</clipPath>
<clipPath id="clip50">
  <path d="M 16.5 11.355469 L 18 11.355469 L 18 12.917969 L 16.5 12.917969 Z M 16.5 11.355469 "/>
</clipPath>
</defs>
<g id="surface1">
<rect x="0" y="0" width="33" height="25" style="fill:rgb(74.117647%,23.921569%,26.666667%);fill-opacity:1;stroke:none;"/>
<path style="fill-rule:nonzero;fill:rgb(0%,0%,0%);fill-opacity:1;stroke-width:37;stroke-linecap:butt;stroke-linejoin:miter;stroke:rgb(100%,100%,100%);stroke-opacity:1;stroke-miterlimit:4;" d="M 0 55.275 L 640 55.275 M 0 129 L 640 129 M 0 203.025 L 640 203.025 M 0 276.975 L 640 276.975 M 0 351 L 640 351 M 0 425.025 L 640 425.025 " transform="matrix(0.0515625,0,0,0.0520833,0,0)"/>
<path style=" stroke:none;fill-rule:nonzero;fill:rgb(9.803922%,18.431373%,36.470588%);fill-opacity:1;" d="M 0 0 L 18.808594 0 L 18.808594 13.464844 L 0 13.464844 "/>
<g clip-path="url(#clip1)" clip-rule="nonzero">
<path style=" stroke:none;fill-rule:nonzero;fill:rgb(100%,100%,100%);fill-opacity:1;" d="M 1.546875 0.574219 L 2.011719 1.980469 L 0.824219 1.09375 L 2.269531 1.09375 L 1.082031 1.980469 Z M 1.546875 0.574219 "/>
</g>
<g clip-path="url(#clip2)" clip-rule="nonzero">
<path style=" stroke:none;fill-rule:nonzero;fill:rgb(100%,100%,100%);fill-opacity:1;" d="M 4.691406 0.574219 L 5.15625 1.980469 L 3.96875 1.09375 L 5.414062 1.09375 L 4.226562 1.980469 Z M 4.691406 0.574219 "/>
</g>
<g clip-path="url(#clip3)" clip-rule="nonzero">
<path style=" stroke:none;fill-rule:nonzero;fill:rgb(100%,100%,100%);fill-opacity:1;" d="M 7.835938 0.574219 L 8.300781 1.980469 L 7.117188 1.09375 L 8.558594 1.09375 L 7.375 1.980469 Z M 7.835938 0.574219 "/>
</g>
<g clip-path="url(#clip4)" clip-rule="nonzero">
<path style=" stroke:none;fill-rule:nonzero;fill:rgb(100%,100%,100%);fill-opacity:1;" d="M 10.984375 0.574219 L 11.445312 1.980469 L 10.261719 1.09375 L 11.703125 1.09375 L 10.519531 1.980469 Z M 10.984375 0.574219 "/>
</g>
<g clip-path="url(#clip5)" clip-rule="nonzero">
<path style=" stroke:none;fill-rule:nonzero;fill:rgb(100%,100%,100%);fill-opacity:1;" d="M 14.128906 0.574219 L 14.59375 1.980469 L 13.40625 1.09375 L 14.851562 1.09375 L 13.664062 1.980469 Z M 14.128906 0.574219 "/>
</g>
<g clip-path="url(#clip6)" clip-rule="nonzero">
<path style=" stroke:none;fill-rule:nonzero;fill:rgb(100%,100%,100%);fill-opacity:1;" d="M 17.222656 0.574219 L 17.6875 1.980469 L 16.5 1.09375 L 17.945312 1.09375 L 16.757812 1.980469 Z M 17.222656 0.574219 "/>
</g>
<g clip-path="url(#clip7)" clip-rule="nonzero">
<path style=" stroke:none;fill-rule:nonzero;fill:rgb(100%,100%,100%);fill-opacity:1;" d="M 3.144531 1.925781 L 3.609375 3.332031 L 2.421875 2.449219 L 3.867188 2.449219 L 2.679688 3.332031 Z M 3.144531 1.925781 "/>
</g>
<g clip-path="url(#clip8)" clip-rule="nonzero">
<path style=" stroke:none;fill-rule:nonzero;fill:rgb(100%,100%,100%);fill-opacity:1;" d="M 6.289062 1.925781 L 6.753906 3.332031 L 5.570312 2.449219 L 7.011719 2.449219 L 5.828125 3.332031 Z M 6.289062 1.925781 "/>
</g>
<g clip-path="url(#clip9)" clip-rule="nonzero">
<path style=" stroke:none;fill-rule:nonzero;fill:rgb(100%,100%,100%);fill-opacity:1;" d="M 9.4375 1.925781 L 9.898438 3.332031 L 8.714844 2.449219 L 10.15625 2.449219 L 8.972656 3.332031 Z M 9.4375 1.925781 "/>
</g>
<g clip-path="url(#clip10)" clip-rule="nonzero">
<path style=" stroke:none;fill-rule:nonzero;fill:rgb(100%,100%,100%);fill-opacity:1;" d="M 12.53125 1.925781 L 12.992188 3.332031 L 11.808594 2.449219 L 13.25 2.449219 L 12.066406 3.332031 Z M 12.53125 1.925781 "/>
</g>
<g clip-path="url(#clip11)" clip-rule="nonzero">
<path style=" stroke:none;fill-rule:nonzero;fill:rgb(100%,100%,100%);fill-opacity:1;" d="M 15.675781 1.925781 L 16.140625 3.332031 L 14.953125 2.449219 L 16.398438 2.449219 L 15.210938 3.332031 Z M 15.675781 1.925781 "/>
</g>
<g clip-path="url(#clip12)" clip-rule="nonzero">
<path style=" stroke:none;fill-rule:nonzero;fill:rgb(100%,100%,100%);fill-opacity:1;" d="M 1.546875 3.28125 L 2.011719 4.6875 L 0.824219 3.800781 L 2.269531 3.800781 L 1.082031 4.6875 Z M 1.546875 3.28125 "/>
</g>
<g clip-path="url(#clip13)" clip-rule="nonzero">
<path style=" stroke:none;fill-rule:nonzero;fill:rgb(100%,100%,100%);fill-opacity:1;" d="M 4.691406 3.28125 L 5.15625 4.6875 L 3.96875 3.800781 L 5.414062 3.800781 L 4.226562 4.6875 Z M 4.691406 3.28125 "/>
</g>
<g clip-path="url(#clip14)" clip-rule="nonzero">
<path style=" stroke:none;fill-rule:nonzero;fill:rgb(100%,100%,100%);fill-opacity:1;" d="M 7.835938 3.28125 L 8.300781 4.6875 L 7.117188 3.800781 L 8.558594 3.800781 L 7.375 4.6875 Z M 7.835938 3.28125 "/>
</g>
<g clip-path="url(#clip15)" clip-rule="nonzero">
<path style=" stroke:none;fill-rule:nonzero;fill:rgb(100%,100%,100%);fill-opacity:1;" d="M 10.984375 3.28125 L 11.445312 4.6875 L 10.261719 3.800781 L 11.703125 3.800781 L 10.519531 4.6875 Z M 10.984375 3.28125 "/>
</g>
<g clip-path="url(#clip16)" clip-rule="nonzero">
<path style=" stroke:none;fill-rule:nonzero;fill:rgb(100%,100%,100%);fill-opacity:1;" d="M 14.128906 3.28125 L 14.59375 4.6875 L 13.40625 3.800781 L 14.851562 3.800781 L 13.664062 4.6875 Z M 14.128906 3.28125 "/>
</g>
<g clip-path="url(#clip17)" clip-rule="nonzero">
<path style=" stroke:none;fill-rule:nonzero;fill:rgb(100%,100%,100%);fill-opacity:1;" d="M 17.222656 3.28125 L 17.6875 4.6875 L 16.5 3.800781 L 17.945312 3.800781 L 16.757812 4.6875 Z M 17.222656 3.28125 "/>
</g>
<g clip-path="url(#clip18)" clip-rule="nonzero">
<path style=" stroke:none;fill-rule:nonzero;fill:rgb(100%,100%,100%);fill-opacity:1;" d="M 3.144531 4.636719 L 3.609375 6.042969 L 2.421875 5.15625 L 3.867188 5.15625 L 2.679688 6.042969 Z M 3.144531 4.636719 "/>
</g>
<g clip-path="url(#clip19)" clip-rule="nonzero">
<path style=" stroke:none;fill-rule:nonzero;fill:rgb(100%,100%,100%);fill-opacity:1;" d="M 6.289062 4.636719 L 6.753906 6.042969 L 5.570312 5.15625 L 7.011719 5.15625 L 5.828125 6.042969 Z M 6.289062 4.636719 "/>
</g>
<g clip-path="url(#clip20)" clip-rule="nonzero">
<path style=" stroke:none;fill-rule:nonzero;fill:rgb(100%,100%,100%);fill-opacity:1;" d="M 9.4375 4.636719 L 9.898438 6.042969 L 8.714844 5.15625 L 10.15625 5.15625 L 8.972656 6.042969 Z M 9.4375 4.636719 "/>
</g>
<g clip-path="url(#clip21)" clip-rule="nonzero">
<path style=" stroke:none;fill-rule:nonzero;fill:rgb(100%,100%,100%);fill-opacity:1;" d="M 12.53125 4.636719 L 12.992188 6.042969 L 11.808594 5.15625 L 13.25 5.15625 L 12.066406 6.042969 Z M 12.53125 4.636719 "/>
</g>
<g clip-path="url(#clip22)" clip-rule="nonzero">
<path style=" stroke:none;fill-rule:nonzero;fill:rgb(100%,100%,100%);fill-opacity:1;" d="M 15.675781 4.636719 L 16.140625 6.042969 L 14.953125 5.15625 L 16.398438 5.15625 L 15.210938 6.042969 Z M 15.675781 4.636719 "/>
</g>
<g clip-path="url(#clip23)" clip-rule="nonzero">
<path style=" stroke:none;fill-rule:nonzero;fill:rgb(100%,100%,100%);fill-opacity:1;" d="M 1.546875 5.988281 L 2.011719 7.394531 L 0.824219 6.511719 L 2.269531 6.511719 L 1.082031 7.394531 Z M 1.546875 5.988281 "/>
</g>
<g clip-path="url(#clip24)" clip-rule="nonzero">
<path style=" stroke:none;fill-rule:nonzero;fill:rgb(100%,100%,100%);fill-opacity:1;" d="M 4.691406 5.988281 L 5.15625 7.394531 L 3.96875 6.511719 L 5.414062 6.511719 L 4.226562 7.394531 Z M 4.691406 5.988281 "/>
</g>
<g clip-path="url(#clip25)" clip-rule="nonzero">
<path style=" stroke:none;fill-rule:nonzero;fill:rgb(100%,100%,100%);fill-opacity:1;" d="M 7.835938 5.988281 L 8.300781 7.394531 L 7.117188 6.511719 L 8.558594 6.511719 L 7.375 7.394531 Z M 7.835938 5.988281 "/>
</g>
<g clip-path="url(#clip26)" clip-rule="nonzero">
<path style=" stroke:none;fill-rule:nonzero;fill:rgb(100%,100%,100%);fill-opacity:1;" d="M 10.984375 5.988281 L 11.445312 7.394531 L 10.261719 6.511719 L 11.703125 6.511719 L 10.519531 7.394531 Z M 10.984375 5.988281 "/>
</g>
<g clip-path="url(#clip27)" clip-rule="nonzero">
<path style=" stroke:none;fill-rule:nonzero;fill:rgb(100%,100%,100%);fill-opacity:1;" d="M 14.128906 5.988281 L 14.59375 7.394531 L 13.40625 6.511719 L 14.851562 6.511719 L 13.664062 7.394531 Z M 14.128906 5.988281 "/>
</g>
<g clip-path="url(#clip28)" clip-rule="nonzero">
<path style=" stroke:none;fill-rule:nonzero;fill:rgb(100%,100%,100%);fill-opacity:1;" d="M 17.222656 5.988281 L 17.6875 7.394531 L 16.5 6.511719 L 17.945312 6.511719 L 16.757812 7.394531 Z M 17.222656 5.988281 "/>
</g>
<g clip-path="url(#clip29)" clip-rule="nonzero">
<path style=" stroke:none;fill-rule:nonzero;fill:rgb(100%,100%,100%);fill-opacity:1;" d="M 3.144531 7.34375 L 3.609375 8.75 L 2.421875 7.863281 L 3.867188 7.863281 L 2.679688 8.75 Z M 3.144531 7.34375 "/>
</g>
<g clip-path="url(#clip30)" clip-rule="nonzero">
<path style=" stroke:none;fill-rule:nonzero;fill:rgb(100%,100%,100%);fill-opacity:1;" d="M 6.289062 7.34375 L 6.753906 8.75 L 5.570312 7.863281 L 7.011719 7.863281 L 5.828125 8.75 Z M 6.289062 7.34375 "/>
</g>
<g clip-path="url(#clip31)" clip-rule="nonzero">
<path style=" stroke:none;fill-rule:nonzero;fill:rgb(100%,100%,100%);fill-opacity:1;" d="M 9.4375 7.34375 L 9.898438 8.75 L 8.714844 7.863281 L 10.15625 7.863281 L 8.972656 8.75 Z M 9.4375 7.34375 "/>
</g>
<g clip-path="url(#clip32)" clip-rule="nonzero">
<path style=" stroke:none;fill-rule:nonzero;fill:rgb(100%,100%,100%);fill-opacity:1;" d="M 12.53125 7.34375 L 12.992188 8.75 L 11.808594 7.863281 L 13.25 7.863281 L 12.066406 8.75 Z M 12.53125 7.34375 "/>
</g>
<g clip-path="url(#clip33)" clip-rule="nonzero">
<path style=" stroke:none;fill-rule:nonzero;fill:rgb(100%,100%,100%);fill-opacity:1;" d="M 15.675781 7.34375 L 16.140625 8.75 L 14.953125 7.863281 L 16.398438 7.863281 L 15.210938 8.75 Z M 15.675781 7.34375 "/>
</g>
<g clip-path="url(#clip34)" clip-rule="nonzero">
<path style=" stroke:none;fill-rule:nonzero;fill:rgb(100%,100%,100%);fill-opacity:1;" d="M 1.546875 8.644531 L 2.011719 10.050781 L 0.824219 9.167969 L 2.269531 9.167969 L 1.082031 10.050781 Z M 1.546875 8.644531 "/>
</g>
<g clip-path="url(#clip35)" clip-rule="nonzero">
<path style=" stroke:none;fill-rule:nonzero;fill:rgb(100%,100%,100%);fill-opacity:1;" d="M 4.691406 8.644531 L 5.15625 10.050781 L 3.96875 9.167969 L 5.414062 9.167969 L 4.226562 10.050781 Z M 4.691406 8.644531 "/>
</g>
<g clip-path="url(#clip36)" clip-rule="nonzero">
<path style=" stroke:none;fill-rule:nonzero;fill:rgb(100%,100%,100%);fill-opacity:1;" d="M 7.835938 8.644531 L 8.300781 10.050781 L 7.117188 9.167969 L 8.558594 9.167969 L 7.375 10.050781 Z M 7.835938 8.644531 "/>
</g>
<g clip-path="url(#clip37)" clip-rule="nonzero">
<path style=" stroke:none;fill-rule:nonzero;fill:rgb(100%,100%,100%);fill-opacity:1;" d="M 10.984375 8.644531 L 11.445312 10.050781 L 10.261719 9.167969 L 11.703125 9.167969 L 10.519531 10.050781 Z M 10.984375 8.644531 "/>
</g>
<g clip-path="url(#clip38)" clip-rule="nonzero">
<path style=" stroke:none;fill-rule:nonzero;fill:rgb(100%,100%,100%);fill-opacity:1;" d="M 14.128906 8.644531 L 14.59375 10.050781 L 13.40625 9.167969 L 14.851562 9.167969 L 13.664062 10.050781 Z M 14.128906 8.644531 "/>
</g>
<g clip-path="url(#clip39)" clip-rule="nonzero">
<path style=" stroke:none;fill-rule:nonzero;fill:rgb(100%,100%,100%);fill-opacity:1;" d="M 17.222656 8.644531 L 17.6875 10.050781 L 16.5 9.167969 L 17.945312 9.167969 L 16.757812 10.050781 Z M 17.222656 8.644531 "/>
</g>
<g clip-path="url(#clip40)" clip-rule="nonzero">
<path style=" stroke:none;fill-rule:nonzero;fill:rgb(100%,100%,100%);fill-opacity:1;" d="M 3.144531 10 L 3.609375 11.40625 L 2.421875 10.519531 L 3.867188 10.519531 L 2.679688 11.40625 Z M 3.144531 10 "/>
</g>
<g clip-path="url(#clip41)" clip-rule="nonzero">
<path style=" stroke:none;fill-rule:nonzero;fill:rgb(100%,100%,100%);fill-opacity:1;" d="M 6.289062 10 L 6.753906 11.40625 L 5.570312 10.519531 L 7.011719 10.519531 L 5.828125 11.40625 Z M 6.289062 10 "/>
</g>
<g clip-path="url(#clip42)" clip-rule="nonzero">
<path style=" stroke:none;fill-rule:nonzero;fill:rgb(100%,100%,100%);fill-opacity:1;" d="M 9.4375 10 L 9.898438 11.40625 L 8.714844 10.519531 L 10.15625 10.519531 L 8.972656 11.40625 Z M 9.4375 10 "/>
</g>
<g clip-path="url(#clip43)" clip-rule="nonzero">
<path style=" stroke:none;fill-rule:nonzero;fill:rgb(100%,100%,100%);fill-opacity:1;" d="M 12.53125 10 L 12.992188 11.40625 L 11.808594 10.519531 L 13.25 10.519531 L 12.066406 11.40625 Z M 12.53125 10 "/>
</g>
<g clip-path="url(#clip44)" clip-rule="nonzero">
<path style=" stroke:none;fill-rule:nonzero;fill:rgb(100%,100%,100%);fill-opacity:1;" d="M 15.675781 10 L 16.140625 11.40625 L 14.953125 10.519531 L 16.398438 10.519531 L 15.210938 11.40625 Z M 15.675781 10 "/>
</g>
<g clip-path="url(#clip45)" clip-rule="nonzero">
<path style=" stroke:none;fill-rule:nonzero;fill:rgb(100%,100%,100%);fill-opacity:1;" d="M 1.546875 11.355469 L 2.011719 12.761719 L 0.824219 11.875 L 2.269531 11.875 L 1.082031 12.761719 Z M 1.546875 11.355469 "/>
</g>
<g clip-path="url(#clip46)" clip-rule="nonzero">
<path style=" stroke:none;fill-rule:nonzero;fill:rgb(100%,100%,100%);fill-opacity:1;" d="M 4.691406 11.355469 L 5.15625 12.761719 L 3.96875 11.875 L 5.414062 11.875 L 4.226562 12.761719 Z M 4.691406 11.355469 "/>
</g>
<g clip-path="url(#clip47)" clip-rule="nonzero">
<path style=" stroke:none;fill-rule:nonzero;fill:rgb(100%,100%,100%);fill-opacity:1;" d="M 7.835938 11.355469 L 8.300781 12.761719 L 7.117188 11.875 L 8.558594 11.875 L 7.375 12.761719 Z M 7.835938 11.355469 "/>
</g>
<g clip-path="url(#clip48)" clip-rule="nonzero">
<path style=" stroke:none;fill-rule:nonzero;fill:rgb(100%,100%,100%);fill-opacity:1;" d="M 10.984375 11.355469 L 11.445312 12.761719 L 10.261719 11.875 L 11.703125 11.875 L 10.519531 12.761719 Z M 10.984375 11.355469 "/>
</g>
<g clip-path="url(#clip49)" clip-rule="nonzero">
<path style=" stroke:none;fill-rule:nonzero;fill:rgb(100%,100%,100%);fill-opacity:1;" d="M 14.128906 11.355469 L 14.59375 12.761719 L 13.40625 11.875 L 14.851562 11.875 L 13.664062 12.761719 Z M 14.128906 11.355469 "/>
</g>
<g clip-path="url(#clip50)" clip-rule="nonzero">
<path style=" stroke:none;fill-rule:nonzero;fill:rgb(100%,100%,100%);fill-opacity:1;" d="M 17.222656 11.355469 L 17.6875 12.761719 L 16.5 11.875 L 17.945312 11.875 L 16.757812 12.761719 Z M 17.222656 11.355469 "/>
</g>
</g>
</svg>
